<?xml version="1.0" encoding="UTF-8"?>
<!DOCTYPE svg PUBLIC "-//W3C//DTD SVG 1.1//EN" "http://www.w3.org/Graphics/SVG/1.1/DTD/svg11.dtd">
<svg xmlns="http://www.w3.org/2000/svg" version="1.1" width="474px" height="527px" style="shape-rendering:geometricPrecision; text-rendering:geometricPrecision; image-rendering:optimizeQuality; fill-rule:evenodd; clip-rule:evenodd" xmlns:xlink="http://www.w3.org/1999/xlink">
<g><path style="opacity:0.361" fill="#24698f" d="M 87.5,87.5 C 89.6413,86.8367 91.9746,86.5034 94.5,86.5C 110.997,87.0567 127.33,87.7234 143.5,88.5C 143.167,88.5 142.833,88.5 142.5,88.5C 134.167,88.5 125.833,88.5 117.5,88.5C 113.5,88.5 109.5,88.5 105.5,88.5C 103.5,88.5 101.5,88.5 99.5,88.5C 95.7016,87.5166 91.7016,87.1832 87.5,87.5 Z"/></g>
<g><path style="opacity:0.684" fill="#316fb1" d="M 142.5,88.5 C 142.833,88.5 143.167,88.5 143.5,88.5C 176.009,88.4899 208.342,89.1566 240.5,90.5C 216.833,90.5 193.167,90.5 169.5,90.5C 163.355,89.5098 157.022,89.1765 150.5,89.5C 147.615,89.8064 144.948,89.4731 142.5,88.5 Z"/></g>
<g><path style="opacity:1" fill="#3bc3fe" d="M 99.5,88.5 C 101.5,88.5 103.5,88.5 105.5,88.5C 105.918,89.2216 106.584,89.7216 107.5,90C 105.5,90.3333 103.5,90.6667 101.5,91C 104.167,92.3333 104.167,93.6667 101.5,95C 102.246,98.2804 102.913,101.614 103.5,105C 102.276,114.147 102.276,123.313 103.5,132.5C 103.679,135.131 103.013,137.465 101.5,139.5C 102.167,140.5 102.833,141.5 103.5,142.5C 102.802,158.791 102.802,175.124 103.5,191.5C 101.14,190.084 99.14,190.417 97.5,192.5C 99.396,193.466 101.396,193.799 103.5,193.5C 103.5,194.833 103.5,196.167 103.5,197.5C 101.24,198.139 99.2396,199.306 97.5,201C 98.9842,202.574 100.651,203.907 102.5,205C 99.854,205.497 97.1873,205.664 94.5,205.5C 94.67,204.178 94.3366,203.011 93.5,202C 91.1725,202.804 88.8391,202.637 86.5,201.5C 86.5,200.833 86.5,200.167 86.5,199.5C 92.03,201.405 93.03,200.571 89.5,197C 92.1667,195.333 92.1667,193.667 89.5,192C 89.5768,183.949 89.5768,176.116 89.5,168.5C 90.6361,166.682 91.3028,164.682 91.5,162.5C 91.2565,159.73 90.9231,156.897 90.5,154C 91.8835,150.633 92.7168,147.133 93,143.5C 93.1667,138.333 93.3333,133.167 93.5,128C 93.623,122.061 93.123,116.228 92,110.5C 91.6667,116.167 91.3333,121.833 91,127.5C 89.9857,114.852 89.4857,102.185 89.5,89.5C 92.8599,89.3841 96.1933,89.0508 99.5,88.5 Z"/></g>
<g><path style="opacity:1" fill="#32b8fe" d="M 117.5,88.5 C 125.833,88.5 134.167,88.5 142.5,88.5C 144.948,89.4731 147.615,89.8064 150.5,89.5C 146.03,90.4861 141.363,90.8195 136.5,90.5C 131.25,90.8721 125.917,91.0388 120.5,91C 122.833,91.3333 125.167,91.6667 127.5,92C 126.207,92.49 124.873,92.6567 123.5,92.5C 122.688,94.7426 122.021,97.0759 121.5,99.5C 122.514,103.21 122.514,106.876 121.5,110.5C 122.732,113.3 123.399,116.3 123.5,119.5C 122.41,145.492 122.243,171.492 123,197.5C 123.827,198.662 124.66,199.829 125.5,201C 124.375,202.963 123.041,204.796 121.5,206.5C 121.931,207.293 122.265,208.127 122.5,209C 122.181,217.001 121.181,224.834 119.5,232.5C 121.882,235.278 121.882,237.945 119.5,240.5C 120.601,242.642 121.601,244.808 122.5,247C 121.589,251.144 120.589,255.311 119.5,259.5C 122.736,267.114 122.736,274.614 119.5,282C 120.676,285.829 122.009,289.663 123.5,293.5C 122.257,298.264 121.257,302.931 120.5,307.5C 117.098,310.895 114.098,314.562 111.5,318.5C 108.233,320.427 105.233,322.761 102.5,325.5C 102.714,323.856 102.38,322.356 101.5,321C 103.134,320.506 104.801,320.34 106.5,320.5C 106.677,316.474 108.677,313.641 112.5,312C 110.336,311.086 108.336,309.919 106.5,308.5C 108.534,306.024 110.867,304.691 113.5,304.5C 112.15,303.05 110.484,302.383 108.5,302.5C 108.45,298.812 108.116,295.145 107.5,291.5C 107.787,289.514 108.453,287.68 109.5,286C 108.983,283.923 108.316,281.923 107.5,280C 108.312,273.915 108.812,267.748 109,261.5C 109.925,260.953 110.758,260.287 111.5,259.5C 107.711,257.339 107.044,254.672 109.5,251.5C 108.6,249.761 107.933,247.928 107.5,246C 107.915,242.894 108.915,242.728 110.5,245.5C 111.661,241.205 111.828,236.871 111,232.5C 110.682,230.939 109.849,229.772 108.5,229C 109.419,224.574 110.086,220.074 110.5,215.5C 108.876,215.36 107.71,216.027 107,217.5C 104.784,223.578 103.45,229.912 103,236.5C 102.411,238.863 100.911,239.863 98.5,239.5C 98.6646,242.518 98.498,245.518 98,248.5C 96.8904,250.037 95.3904,250.703 93.5,250.5C 92.2347,240.029 93.2347,229.696 96.5,219.5C 96.3333,218.167 96.1667,216.833 96,215.5C 94.3179,212.971 92.8179,210.304 91.5,207.5C 91.8916,205.129 92.8916,204.462 94.5,205.5C 95.0577,206.79 96.0577,207.623 97.5,208C 100.982,208.912 104.482,209.745 108,210.5C 110.288,209.317 112.788,208.484 115.5,208C 113.377,207.185 111.377,206.185 109.5,205C 112.742,202.46 113.408,199.293 111.5,195.5C 114.231,176.789 113.898,158.122 110.5,139.5C 110.667,138.167 110.833,136.833 111,135.5C 111.75,143.169 112.916,143.336 114.5,136C 113.018,130.068 111.685,124.068 110.5,118C 113.062,111.038 113.895,103.871 113,96.5C 112.323,94.311 111.156,93.9776 109.5,95.5C 108.692,95.1924 108.025,94.6924 107.5,94C 110.5,93.6667 113.5,93.3333 116.5,93C 111.187,90.4104 111.52,88.9104 117.5,88.5 Z"/></g>
<g><path style="opacity:1" fill="#33b1fe" d="M 136.5,90.5 C 137.289,91.915 137.956,93.415 138.5,95C 137.677,128.804 137.177,162.637 137,196.5C 135.735,198.813 134.235,200.98 132.5,203C 133.5,203.833 134.5,204.667 135.5,205.5C 134.975,206.192 134.308,206.692 133.5,207C 134.483,212.929 134.483,218.929 133.5,225C 133.675,227.823 134.342,230.49 135.5,233C 133.985,235.569 133.319,238.402 133.5,241.5C 133.665,255.347 133.665,269.181 133.5,283C 133.198,285.687 134.198,287.687 136.5,289C 135.484,291.176 133.818,292.343 131.5,292.5C 131.5,293.833 131.5,295.167 131.5,296.5C 129.445,298.555 127.779,300.888 126.5,303.5C 124.246,304.415 122.246,305.748 120.5,307.5C 121.257,302.931 122.257,298.264 123.5,293.5C 122.009,289.663 120.676,285.829 119.5,282C 122.736,274.614 122.736,267.114 119.5,259.5C 120.589,255.311 121.589,251.144 122.5,247C 121.601,244.808 120.601,242.642 119.5,240.5C 121.882,237.945 121.882,235.278 119.5,232.5C 121.181,224.834 122.181,217.001 122.5,209C 122.265,208.127 121.931,207.293 121.5,206.5C 123.041,204.796 124.375,202.963 125.5,201C 124.66,199.829 123.827,198.662 123,197.5C 122.243,171.492 122.41,145.492 123.5,119.5C 123.399,116.3 122.732,113.3 121.5,110.5C 122.514,106.876 122.514,103.21 121.5,99.5C 122.021,97.0759 122.688,94.7426 123.5,92.5C 124.873,92.6567 126.207,92.49 127.5,92C 125.167,91.6667 122.833,91.3333 120.5,91C 125.917,91.0388 131.25,90.8721 136.5,90.5 Z"/></g>
<g><path style="opacity:1" fill="#37abfe" d="M 150.5,89.5 C 157.022,89.1765 163.355,89.5098 169.5,90.5C 165.774,90.1774 162.107,90.5108 158.5,91.5C 158.137,92.1835 157.804,92.8501 157.5,93.5C 150.445,93.1943 148.112,96.361 150.5,103C 149.833,103.333 149.167,103.667 148.5,104C 149.108,105.231 149.441,106.564 149.5,108C 146.911,112.846 146.911,117.68 149.5,122.5C 148.758,125.757 148.758,129.09 149.5,132.5C 149.522,134.965 149.022,137.298 148,139.5C 146.513,138.259 145.68,138.759 145.5,141C 146.652,143.158 147.819,145.325 149,147.5C 149.168,156.851 149.668,166.184 150.5,175.5C 151.086,175.291 151.586,174.957 152,174.5C 152.757,168.759 154.924,163.759 158.5,159.5C 159.135,155.757 160.635,152.423 163,149.5C 163.024,145.112 164.191,141.112 166.5,137.5C 166.833,138 167.167,138.5 167.5,139C 167.083,143.964 166.083,148.797 164.5,153.5C 164.939,155.104 165.606,156.604 166.5,158C 165.937,167.827 165.604,177.66 165.5,187.5C 165.649,189.32 166.316,190.82 167.5,192C 160.866,192.823 160.866,193.323 167.5,193.5C 167.286,195.144 167.62,196.644 168.5,198C 166.19,198.497 163.857,198.663 161.5,198.5C 161.167,198.5 160.833,198.5 160.5,198.5C 155.379,196.218 149.879,194.885 144,194.5C 143.342,196.108 143.842,197.275 145.5,198C 144.833,198.333 144.167,198.667 143.5,199C 144.624,199.249 145.624,199.749 146.5,200.5C 146.03,202.774 145.03,204.774 143.5,206.5C 144.325,207.386 145.325,207.719 146.5,207.5C 146.601,217.384 145.934,227.217 144.5,237C 144.972,241.859 145.638,246.693 146.5,251.5C 146.065,253.74 145.398,255.906 144.5,258C 145.625,260.978 145.625,263.978 144.5,267C 144.994,269.568 145.994,271.902 147.5,274C 146.207,274.49 144.873,274.657 143.5,274.5C 143.244,276.792 143.577,278.959 144.5,281C 140.263,282.156 138.263,284.99 138.5,289.5C 136.403,292.053 134.07,294.386 131.5,296.5C 131.5,295.167 131.5,293.833 131.5,292.5C 133.818,292.343 135.484,291.176 136.5,289C 134.198,287.687 133.198,285.687 133.5,283C 133.665,269.181 133.665,255.347 133.5,241.5C 133.319,238.402 133.985,235.569 135.5,233C 134.342,230.49 133.675,227.823 133.5,225C 134.483,218.929 134.483,212.929 133.5,207C 134.308,206.692 134.975,206.192 135.5,205.5C 134.5,204.667 133.5,203.833 132.5,203C 134.235,200.98 135.735,198.813 137,196.5C 137.177,162.637 137.677,128.804 138.5,95C 137.956,93.415 137.289,91.915 136.5,90.5C 141.363,90.8195 146.03,90.4861 150.5,89.5 Z"/></g>
<g><path style="opacity:1" fill="#3c9ffd" d="M 169.5,90.5 C 193.167,90.5 216.833,90.5 240.5,90.5C 241.167,90.5 241.833,90.5 242.5,90.5C 242.5,90.8333 242.5,91.1667 242.5,91.5C 240.833,91.5 239.167,91.5 237.5,91.5C 232.833,91.5 228.167,91.5 223.5,91.5C 212.131,91.2414 200.797,91.7414 189.5,93C 190.167,93.3333 190.833,93.6667 191.5,94C 190.167,94.3333 188.833,94.6667 187.5,95C 188.235,98.8692 189.568,102.536 191.5,106C 190.256,110.621 189.256,115.287 188.5,120C 192.5,122.333 192.5,124.667 188.5,127C 189.448,127.483 190.448,127.649 191.5,127.5C 191.5,152.5 191.5,177.5 191.5,202.5C 189.058,202.354 188.391,203.187 189.5,205C 188.529,206.481 187.196,207.315 185.5,207.5C 179.996,206.694 174.496,205.361 169,203.5C 167.272,203.454 165.772,203.954 164.5,205C 166.18,205.347 167.18,206.347 167.5,208C 166.491,209.168 165.491,210.335 164.5,211.5C 164.833,212.5 165.5,213.167 166.5,213.5C 167.429,222.195 168.429,230.862 169.5,239.5C 168.5,239.5 167.5,239.5 166.5,239.5C 166.336,242.187 166.503,244.854 167,247.5C 168.067,248.191 169.234,248.691 170.5,249C 167.03,251.123 167.03,252.29 170.5,252.5C 170.094,254.109 170.094,255.443 170.5,256.5C 173.661,255.087 176.661,253.42 179.5,251.5C 191.04,258.186 203.04,264.019 215.5,269C 225.787,275.955 235.787,283.289 245.5,291C 260.358,298.622 275.025,306.622 289.5,315C 295.718,317.942 302.051,320.609 308.5,323C 323.307,332.108 338.307,340.942 353.5,349.5C 355.283,347.977 355.949,345.977 355.5,343.5C 356.473,345.948 356.806,348.615 356.5,351.5C 355.833,351.5 355.5,351.833 355.5,352.5C 354.175,351.047 353.342,351.381 353,353.5C 352.644,350.271 350.81,348.771 347.5,349C 323.132,334.255 298.132,320.921 272.5,309C 258.088,299.798 243.421,291.131 228.5,283C 210.712,273.69 192.879,264.523 175,255.5C 173.581,256.46 172.081,257.293 170.5,258C 169.748,258.671 169.414,259.504 169.5,260.5C 167.5,261.643 166.833,263.143 167.5,265C 175.883,269.545 183.883,274.712 191.5,280.5C 194.91,281.911 198.243,283.411 201.5,285C 211.13,291.144 221.463,296.81 232.5,302C 235.656,304.157 238.489,306.657 241,309.5C 243.036,308.049 244.869,308.549 246.5,311C 249.057,312.119 251.557,312.285 254,311.5C 286.461,329.268 318.961,347.101 351.5,365C 352.749,366.98 354.082,368.813 355.5,370.5C 357.051,373.619 358.051,376.952 358.5,380.5C 357.536,377.926 356.036,375.592 354,373.5C 341.428,365.657 327.928,358.324 313.5,351.5C 304.222,343.898 293.889,338.064 282.5,334C 278.067,329.449 272.734,326.449 266.5,325C 263.709,320.932 260.042,319.765 255.5,321.5C 238.078,313.274 221.578,304.274 206,294.5C 205.667,294.833 205.333,295.167 205,295.5C 191.936,287.717 179.103,279.55 166.5,271C 163.167,270.886 159.834,271.219 156.5,272C 155.748,272.671 155.414,273.504 155.5,274.5C 154.833,274.5 154.167,274.5 153.5,274.5C 153.75,270.944 153.917,267.277 154,263.5C 154.667,262.167 155.333,260.833 156,259.5C 156.737,248.817 156.571,238.15 155.5,227.5C 155.649,225.68 156.316,224.18 157.5,223C 156.541,221.293 155.875,219.459 155.5,217.5C 156.721,213.946 156.721,210.446 155.5,207C 158.487,203.792 157.82,201.959 153.5,201.5C 153.5,200.5 153.5,199.5 153.5,198.5C 155.833,198.5 158.167,198.5 160.5,198.5C 160.833,198.5 161.167,198.5 161.5,198.5C 177.255,206.583 182.589,202.083 177.5,185C 179.265,177.995 180.265,170.828 180.5,163.5C 177.342,152.728 177.342,142.061 180.5,131.5C 179.782,124.578 178.782,117.745 177.5,111C 177.833,110.667 178.167,110.333 178.5,110C 177.584,109.626 176.75,109.126 176,108.5C 170.569,121.13 165.569,134.13 161,147.5C 160.667,147.833 160.333,148.167 160,148.5C 159.626,147.584 159.126,146.75 158.5,146C 161.042,143.067 161.375,140.234 159.5,137.5C 160.037,136.259 160.704,135.092 161.5,134C 159.936,132.395 159.436,130.562 160,128.5C 161.297,129.784 162.464,129.617 163.5,128C 162.552,127.517 161.552,127.351 160.5,127.5C 160.722,123.829 161.056,120.163 161.5,116.5C 159.974,113.403 159.307,109.403 159.5,104.5C 159.601,101.3 160.268,98.3004 161.5,95.5C 161,94.5 160.5,93.5 160,92.5C 159.329,93.2524 158.496,93.5858 157.5,93.5C 157.804,92.8501 158.137,92.1835 158.5,91.5C 162.107,90.5108 165.774,90.1774 169.5,90.5 Z"/></g>
<g><path style="opacity:0.679" fill="#23147e" d="M 242.5,91.5 C 242.5,91.1667 242.5,90.8333 242.5,90.5C 266.169,90.3334 289.836,90.5 313.5,91C 320.679,91.1715 327.679,91.6715 334.5,92.5C 329.833,92.5 325.167,92.5 320.5,92.5C 314.833,92.5 309.167,92.5 303.5,92.5C 291.678,91.5049 279.678,91.1716 267.5,91.5C 263.5,91.5 259.5,91.5 255.5,91.5C 252.5,91.5 249.5,91.5 246.5,91.5C 245.167,91.5 243.833,91.5 242.5,91.5 Z"/></g>
<g><path style="opacity:1" fill="#3f98fe" d="M 223.5,91.5 C 222.432,92.4345 221.099,92.7678 219.5,92.5C 214.087,92.2288 208.754,92.7288 203.5,94C 203.47,97.9661 203.636,102.133 204,106.5C 204.402,107.872 204.902,109.205 205.5,110.5C 204.779,118.708 204.446,126.875 204.5,135C 205.31,141.765 205.977,148.599 206.5,155.5C 205.244,164.351 205.244,173.184 206.5,182C 203.894,187.328 204.227,192.495 207.5,197.5C 206.508,201.564 206.841,205.564 208.5,209.5C 206.862,210.705 206.529,212.038 207.5,213.5C 206.311,214.429 204.978,214.762 203.5,214.5C 201.295,213.802 199.461,212.468 198,210.5C 197.667,210.833 197.333,211.167 197,211.5C 191.792,210.603 186.626,209.436 181.5,208C 182.793,207.51 184.127,207.343 185.5,207.5C 187.196,207.315 188.529,206.481 189.5,205C 188.391,203.187 189.058,202.354 191.5,202.5C 191.5,177.5 191.5,152.5 191.5,127.5C 190.448,127.649 189.448,127.483 188.5,127C 192.5,124.667 192.5,122.333 188.5,120C 189.256,115.287 190.256,110.621 191.5,106C 189.568,102.536 188.235,98.8692 187.5,95C 188.833,94.6667 190.167,94.3333 191.5,94C 190.833,93.6667 190.167,93.3333 189.5,93C 200.797,91.7414 212.131,91.2414 223.5,91.5 Z"/></g>
<g><path style="opacity:1" fill="#3c92fe" d="M 219.5,92.5 C 217.708,93.3091 215.708,93.8091 213.5,94C 214.563,95.1882 215.897,95.6882 217.5,95.5C 217.321,97.9541 217.987,100.121 219.5,102C 217.985,104.569 217.319,107.402 217.5,110.5C 218.222,127.609 218.222,144.775 217.5,162C 218.084,174.843 218.75,187.676 219.5,200.5C 218.5,200.5 217.5,200.5 216.5,200.5C 216.873,203.574 217.539,206.574 218.5,209.5C 217.473,211.184 216.473,212.851 215.5,214.5C 213.938,214.733 212.605,215.4 211.5,216.5C 208.447,216.889 205.78,216.223 203.5,214.5C 204.978,214.762 206.311,214.429 207.5,213.5C 206.529,212.038 206.862,210.705 208.5,209.5C 206.841,205.564 206.508,201.564 207.5,197.5C 204.227,192.495 203.894,187.328 206.5,182C 205.244,173.184 205.244,164.351 206.5,155.5C 205.977,148.599 205.31,141.765 204.5,135C 204.446,126.875 204.779,118.708 205.5,110.5C 204.902,109.205 204.402,107.872 204,106.5C 203.636,102.133 203.47,97.9661 203.5,94C 208.754,92.7288 214.087,92.2288 219.5,92.5 Z"/></g>
<g><path style="opacity:1" fill="#398cfe" d="M 223.5,91.5 C 228.167,91.5 232.833,91.5 237.5,91.5C 234.311,92.1661 230.977,92.8328 227.5,93.5C 229.078,94.2978 230.744,94.7978 232.5,95C 231.195,99.8964 230.195,104.896 229.5,110C 230.498,119.812 231.165,129.645 231.5,139.5C 231.273,144.897 230.606,150.231 229.5,155.5C 230.167,158.167 230.833,160.833 231.5,163.5C 230.501,170.149 230.334,176.815 231,183.5C 231.925,184.047 232.758,184.713 233.5,185.5C 231.477,186.81 228.81,187.477 225.5,187.5C 225.5,188.5 225.5,189.5 225.5,190.5C 230.22,190.225 230.554,191.059 226.5,193C 228.16,194.488 229.16,196.321 229.5,198.5C 227.091,200.902 225.091,203.569 223.5,206.5C 222.833,206.5 222.5,206.833 222.5,207.5C 220.938,207.733 219.605,208.4 218.5,209.5C 217.539,206.574 216.873,203.574 216.5,200.5C 217.5,200.5 218.5,200.5 219.5,200.5C 218.75,187.676 218.084,174.843 217.5,162C 218.222,144.775 218.222,127.609 217.5,110.5C 217.319,107.402 217.985,104.569 219.5,102C 217.987,100.121 217.321,97.9541 217.5,95.5C 215.897,95.6882 214.563,95.1882 213.5,94C 215.708,93.8091 217.708,93.3091 219.5,92.5C 221.099,92.7678 222.432,92.4345 223.5,91.5 Z"/></g>
<g><path style="opacity:1" fill="#3686fe" d="M 237.5,91.5 C 239.167,91.5 240.833,91.5 242.5,91.5C 243.833,91.5 245.167,91.5 246.5,91.5C 244.031,92.3171 241.365,92.8171 238.5,93C 239.329,120.095 239.829,147.261 240,174.5C 240.692,175.025 241.192,175.692 241.5,176.5C 240.16,177.688 239.493,179.188 239.5,181C 240.378,182.8 241.045,184.633 241.5,186.5C 240.833,187.5 240.167,188.5 239.5,189.5C 239.167,190.167 238.833,190.833 238.5,191.5C 235.233,193.427 232.233,195.761 229.5,198.5C 229.16,196.321 228.16,194.488 226.5,193C 230.554,191.059 230.22,190.225 225.5,190.5C 225.5,189.5 225.5,188.5 225.5,187.5C 228.81,187.477 231.477,186.81 233.5,185.5C 232.758,184.713 231.925,184.047 231,183.5C 230.334,176.815 230.501,170.149 231.5,163.5C 230.833,160.833 230.167,158.167 229.5,155.5C 230.606,150.231 231.273,144.897 231.5,139.5C 231.165,129.645 230.498,119.812 229.5,110C 230.195,104.896 231.195,99.8964 232.5,95C 230.744,94.7978 229.078,94.2978 227.5,93.5C 230.977,92.8328 234.311,92.1661 237.5,91.5 Z"/></g>
<g><path style="opacity:0.814" fill="#4722bc" d="M 320.5,92.5 C 325.167,92.5 329.833,92.5 334.5,92.5C 338.529,92.0573 340.529,93.8906 340.5,98C 339.944,98.3826 339.611,98.8826 339.5,99.5C 339.482,107.851 339.815,116.184 340.5,124.5C 338.902,115.885 337.902,107.052 337.5,98C 337.431,96.0145 336.765,94.5145 335.5,93.5C 330.305,93.8205 325.305,93.4872 320.5,92.5 Z"/></g>
<g><path style="opacity:1" fill="#3679fa" d="M 246.5,91.5 C 249.5,91.5 252.5,91.5 255.5,91.5C 255.5,91.8333 255.5,92.1667 255.5,92.5C 252.881,92.2317 250.381,92.565 248,93.5C 247.833,105.5 247.667,117.5 247.5,129.5C 247.529,142.118 248.196,154.618 249.5,167C 248.839,169.464 248.339,171.964 248,174.5C 246.795,175.071 245.628,175.738 244.5,176.5C 244.833,177.167 245.167,177.833 245.5,178.5C 244.628,180.45 243.961,182.45 243.5,184.5C 243.167,185.5 242.5,186.167 241.5,186.5C 241.045,184.633 240.378,182.8 239.5,181C 239.493,179.188 240.16,177.688 241.5,176.5C 241.192,175.692 240.692,175.025 240,174.5C 239.829,147.261 239.329,120.095 238.5,93C 241.365,92.8171 244.031,92.3171 246.5,91.5 Z"/></g>
<g><path style="opacity:1" fill="#3650f1" d="M 265.5,92.5 C 265.188,110.046 265.522,127.712 266.5,145.5C 264.652,150.971 264.652,156.304 266.5,161.5C 263.167,164.167 260.167,167.167 257.5,170.5C 257.551,168.43 256.885,166.597 255.5,165C 259.597,159.102 260.597,152.602 258.5,145.5C 259.153,128.481 259.82,111.481 260.5,94.5C 259.624,93.7492 258.624,93.2492 257.5,93C 260.146,92.5026 262.813,92.3359 265.5,92.5 Z"/></g>
<g><path style="opacity:1" fill="#3537ea" d="M 279.5,92.5 C 279.082,93.2216 278.416,93.7216 277.5,94C 277.234,110.496 277.567,127.163 278.5,144C 275.739,150.232 272.073,155.732 267.5,160.5C 269.719,156.264 271.385,152.098 272.5,148C 271.817,133.709 271.151,119.376 270.5,105C 271.394,101.224 271.728,97.3905 271.5,93.5C 274.127,92.9084 276.794,92.5751 279.5,92.5 Z"/></g>
<g><path style="opacity:1" fill="#3521e3" d="M 279.5,92.5 C 287.5,92.5 295.5,92.5 303.5,92.5C 309.167,92.5 314.833,92.5 320.5,92.5C 325.305,93.4872 330.305,93.8205 335.5,93.5C 335.5,94.1667 335.167,94.5 334.5,94.5C 320.007,94.4038 305.673,94.4038 291.5,94.5C 291.684,108.543 291.684,122.21 291.5,135.5C 290.886,137.283 289.72,138.616 288,139.5C 287.51,140.793 287.343,142.127 287.5,143.5C 281.042,150.797 274.375,157.797 267.5,164.5C 264.019,167.409 260.352,170.075 256.5,172.5C 256.833,171.833 257.167,171.167 257.5,170.5C 260.167,167.167 263.167,164.167 266.5,161.5C 267.167,161.5 267.5,161.167 267.5,160.5C 272.073,155.732 275.739,150.232 278.5,144C 277.567,127.163 277.234,110.496 277.5,94C 278.416,93.7216 279.082,93.2216 279.5,92.5 Z"/></g>
<g><path style="opacity:1" fill="#365ef4" d="M 255.5,91.5 C 259.5,91.5 263.5,91.5 267.5,91.5C 267.158,92.3382 266.492,92.6716 265.5,92.5C 262.813,92.3359 260.146,92.5026 257.5,93C 258.624,93.2492 259.624,93.7492 260.5,94.5C 259.82,111.481 259.153,128.481 258.5,145.5C 260.597,152.602 259.597,159.102 255.5,165C 256.885,166.597 257.551,168.43 257.5,170.5C 257.167,171.167 256.833,171.833 256.5,172.5C 255.662,172.842 255.328,173.508 255.5,174.5C 253.938,174.733 252.605,175.4 251.5,176.5C 251.338,174.473 251.505,172.473 252,170.5C 252.75,169.874 253.584,169.374 254.5,169C 254.029,154.219 253.696,139.219 253.5,124C 253.667,114.5 253.833,105 254,95.5C 255.039,94.7562 255.539,93.7562 255.5,92.5C 255.5,92.1667 255.5,91.8333 255.5,91.5 Z"/></g>
<g><path style="opacity:1" fill="#3642ea" d="M 267.5,91.5 C 279.678,91.1716 291.678,91.5049 303.5,92.5C 295.5,92.5 287.5,92.5 279.5,92.5C 276.794,92.5751 274.127,92.9084 271.5,93.5C 271.728,97.3905 271.394,101.224 270.5,105C 271.151,119.376 271.817,133.709 272.5,148C 271.385,152.098 269.719,156.264 267.5,160.5C 267.5,161.167 267.167,161.5 266.5,161.5C 264.652,156.304 264.652,150.971 266.5,145.5C 265.522,127.712 265.188,110.046 265.5,92.5C 266.492,92.6716 267.158,92.3382 267.5,91.5 Z"/></g>
<g><path style="opacity:1" fill="#3607dd" d="M 334.5,94.5 C 329.412,100.484 324.079,106.151 318.5,111.5C 313.319,115.916 308.652,120.916 304.5,126.5C 301.611,126.876 299.611,128.376 298.5,131C 296.478,133.009 294.145,134.509 291.5,135.5C 291.684,122.21 291.684,108.543 291.5,94.5C 305.673,94.4038 320.007,94.4038 334.5,94.5 Z"/></g>
<g><path style="opacity:1" fill="#37bdfe" d="M 105.5,88.5 C 109.5,88.5 113.5,88.5 117.5,88.5C 111.52,88.9104 111.187,90.4104 116.5,93C 113.5,93.3333 110.5,93.6667 107.5,94C 108.025,94.6924 108.692,95.1924 109.5,95.5C 111.156,93.9776 112.323,94.311 113,96.5C 113.895,103.871 113.062,111.038 110.5,118C 111.685,124.068 113.018,130.068 114.5,136C 112.916,143.336 111.75,143.169 111,135.5C 110.833,136.833 110.667,138.167 110.5,139.5C 113.898,158.122 114.231,176.789 111.5,195.5C 113.408,199.293 112.742,202.46 109.5,205C 111.377,206.185 113.377,207.185 115.5,208C 112.788,208.484 110.288,209.317 108,210.5C 104.482,209.745 100.982,208.912 97.5,208C 96.0577,207.623 95.0577,206.79 94.5,205.5C 97.1873,205.664 99.854,205.497 102.5,205C 100.651,203.907 98.9842,202.574 97.5,201C 99.2396,199.306 101.24,198.139 103.5,197.5C 103.5,196.167 103.5,194.833 103.5,193.5C 101.396,193.799 99.396,193.466 97.5,192.5C 99.14,190.417 101.14,190.084 103.5,191.5C 102.802,175.124 102.802,158.791 103.5,142.5C 102.833,141.5 102.167,140.5 101.5,139.5C 103.013,137.465 103.679,135.131 103.5,132.5C 102.276,123.313 102.276,114.147 103.5,105C 102.913,101.614 102.246,98.2804 101.5,95C 104.167,93.6667 104.167,92.3333 101.5,91C 103.5,90.6667 105.5,90.3333 107.5,90C 106.584,89.7216 105.918,89.2216 105.5,88.5 Z"/></g>
<g><path style="opacity:1" fill="#366bf9" d="M 255.5,92.5 C 255.539,93.7562 255.039,94.7562 254,95.5C 253.833,105 253.667,114.5 253.5,124C 253.696,139.219 254.029,154.219 254.5,169C 253.584,169.374 252.75,169.874 252,170.5C 251.505,172.473 251.338,174.473 251.5,176.5C 249.167,179.5 246.5,182.167 243.5,184.5C 243.961,182.45 244.628,180.45 245.5,178.5C 245.167,177.833 244.833,177.167 244.5,176.5C 245.628,175.738 246.795,175.071 248,174.5C 248.339,171.964 248.839,169.464 249.5,167C 248.196,154.618 247.529,142.118 247.5,129.5C 247.667,117.5 247.833,105.5 248,93.5C 250.381,92.565 252.881,92.2317 255.5,92.5 Z"/></g>
<g><path style="opacity:1" fill="#651cf6" d="M 335.5,93.5 C 336.765,94.5145 337.431,96.0145 337.5,98C 337.902,107.052 338.902,115.885 340.5,124.5C 340.5,125.167 340.5,125.833 340.5,126.5C 341.649,139.473 342.316,152.473 342.5,165.5C 341.025,151.212 339.692,137.545 338.5,124.5C 337.325,124.281 336.325,124.614 335.5,125.5C 336.326,126.451 336.492,127.451 336,128.5C 331.138,126.149 326.972,122.816 323.5,118.5C 318.73,118.151 317.73,116.317 320.5,113C 323.043,112.86 325.377,112.194 327.5,111C 327,110.5 326.5,110 326,109.5C 323.564,110.355 321.064,111.021 318.5,111.5C 324.079,106.151 329.412,100.484 334.5,94.5C 335.167,94.5 335.5,94.1667 335.5,93.5 Z"/></g>
<g><path style="opacity:0.416" fill="#39177b" d="M 339.5,99.5 C 340.846,111.323 341.846,123.323 342.5,135.5C 341.833,132.5 341.167,129.5 340.5,126.5C 340.5,125.833 340.5,125.167 340.5,124.5C 339.815,116.184 339.482,107.851 339.5,99.5 Z"/></g>
<g><path style="opacity:1" fill="#3fa5fe" d="M 161.5,198.5 C 163.857,198.663 166.19,198.497 168.5,198C 167.62,196.644 167.286,195.144 167.5,193.5C 160.866,193.323 160.866,192.823 167.5,192C 166.316,190.82 165.649,189.32 165.5,187.5C 165.604,177.66 165.937,167.827 166.5,158C 165.606,156.604 164.939,155.104 164.5,153.5C 166.083,148.797 167.083,143.964 167.5,139C 167.167,138.5 166.833,138 166.5,137.5C 164.191,141.112 163.024,145.112 163,149.5C 160.635,152.423 159.135,155.757 158.5,159.5C 154.924,163.759 152.757,168.759 152,174.5C 151.586,174.957 151.086,175.291 150.5,175.5C 149.668,166.184 149.168,156.851 149,147.5C 147.819,145.325 146.652,143.158 145.5,141C 145.68,138.759 146.513,138.259 148,139.5C 149.022,137.298 149.522,134.965 149.5,132.5C 148.758,129.09 148.758,125.757 149.5,122.5C 146.911,117.68 146.911,112.846 149.5,108C 149.441,106.564 149.108,105.231 148.5,104C 149.167,103.667 149.833,103.333 150.5,103C 148.112,96.361 150.445,93.1943 157.5,93.5C 158.496,93.5858 159.329,93.2524 160,92.5C 160.5,93.5 161,94.5 161.5,95.5C 160.268,98.3004 159.601,101.3 159.5,104.5C 159.307,109.403 159.974,113.403 161.5,116.5C 161.056,120.163 160.722,123.829 160.5,127.5C 161.552,127.351 162.552,127.517 163.5,128C 162.464,129.617 161.297,129.784 160,128.5C 159.436,130.562 159.936,132.395 161.5,134C 160.704,135.092 160.037,136.259 159.5,137.5C 161.375,140.234 161.042,143.067 158.5,146C 159.126,146.75 159.626,147.584 160,148.5C 160.333,148.167 160.667,147.833 161,147.5C 165.569,134.13 170.569,121.13 176,108.5C 176.75,109.126 177.584,109.626 178.5,110C 178.167,110.333 177.833,110.667 177.5,111C 178.782,117.745 179.782,124.578 180.5,131.5C 177.342,142.061 177.342,152.728 180.5,163.5C 180.265,170.828 179.265,177.995 177.5,185C 182.589,202.083 177.255,206.583 161.5,198.5 Z"/></g>
<g><path style="opacity:1" fill="#4f11f9" d="M 342.5,165.5 C 343.338,165.842 343.672,166.508 343.5,167.5C 343.251,177.379 343.917,187.046 345.5,196.5C 345.5,196.833 345.5,197.167 345.5,197.5C 345.767,203.838 346.1,210.171 346.5,216.5C 344.425,204.864 342.759,193.03 341.5,181C 341.557,178.105 340.39,175.938 338,174.5C 337.506,172.866 337.34,171.199 337.5,169.5C 329.851,168.352 322.517,166.019 315.5,162.5C 310.699,158.375 305.365,155.042 299.5,152.5C 296.662,150.347 294.662,147.68 293.5,144.5C 291.5,144.167 289.5,143.833 287.5,143.5C 287.343,142.127 287.51,140.793 288,139.5C 289.72,138.616 290.886,137.283 291.5,135.5C 294.145,134.509 296.478,133.009 298.5,131C 299.611,128.376 301.611,126.876 304.5,126.5C 308.652,120.916 313.319,115.916 318.5,111.5C 321.064,111.021 323.564,110.355 326,109.5C 326.5,110 327,110.5 327.5,111C 325.377,112.194 323.043,112.86 320.5,113C 317.73,116.317 318.73,118.151 323.5,118.5C 326.972,122.816 331.138,126.149 336,128.5C 336.492,127.451 336.326,126.451 335.5,125.5C 336.325,124.614 337.325,124.281 338.5,124.5C 339.692,137.545 341.025,151.212 342.5,165.5 Z"/></g>
<g><path style="opacity:0.075" fill="#175773" d="M 87.5,87.5 C 87.3371,112.503 87.0038,137.503 86.5,162.5C 86.1667,162.5 85.8333,162.5 85.5,162.5C 85.6465,137.326 86.3132,112.326 87.5,87.5 Z"/></g>
<g><path style="opacity:1" fill="#41c4f6" d="M 87.5,87.5 C 91.7016,87.1832 95.7016,87.5166 99.5,88.5C 96.1933,89.0508 92.8599,89.3841 89.5,89.5C 89.4857,102.185 89.9857,114.852 91,127.5C 91.3333,121.833 91.6667,116.167 92,110.5C 93.123,116.228 93.623,122.061 93.5,128C 93.3333,133.167 93.1667,138.333 93,143.5C 92.7168,147.133 91.8835,150.633 90.5,154C 90.9231,156.897 91.2565,159.73 91.5,162.5C 91.3028,164.682 90.6361,166.682 89.5,168.5C 89.5768,176.116 89.5768,183.949 89.5,192C 92.1667,193.667 92.1667,195.333 89.5,197C 93.03,200.571 92.03,201.405 86.5,199.5C 86.5,187.167 86.5,174.833 86.5,162.5C 87.0038,137.503 87.3371,112.503 87.5,87.5 Z"/></g>
<g><path style="opacity:1" fill="#2f10fc" d="M 287.5,143.5 C 289.5,143.833 291.5,144.167 293.5,144.5C 294.662,147.68 296.662,150.347 299.5,152.5C 305.365,155.042 310.699,158.375 315.5,162.5C 322.517,166.019 329.851,168.352 337.5,169.5C 337.34,171.199 337.506,172.866 338,174.5C 340.39,175.938 341.557,178.105 341.5,181C 342.759,193.03 344.425,204.864 346.5,216.5C 346.5,217.167 346.5,217.833 346.5,218.5C 346.5,222.5 346.5,226.5 346.5,230.5C 345.482,225.016 344.816,219.349 344.5,213.5C 340.968,212.146 338.135,209.813 336,206.5C 331.594,208 328.094,206.667 325.5,202.5C 320.83,200.377 316.164,198.377 311.5,196.5C 308.367,193.413 305.033,190.746 301.5,188.5C 290.205,184.186 279.538,178.852 269.5,172.5C 267.233,172.559 266.567,173.392 267.5,175C 265.926,175.699 264.593,175.365 263.5,174C 266.607,171.961 268.941,169.295 270.5,166C 269.473,165.487 268.473,164.987 267.5,164.5C 274.375,157.797 281.042,150.797 287.5,143.5 Z"/></g>
<g><path style="opacity:0.163" fill="#321690" d="M 340.5,126.5 C 341.167,129.5 341.833,132.5 342.5,135.5C 344.042,151.798 345.042,168.132 345.5,184.5C 344.833,178.833 344.167,173.167 343.5,167.5C 343.672,166.508 343.338,165.842 342.5,165.5C 342.316,152.473 341.649,139.473 340.5,126.5 Z"/></g>
<g><path style="opacity:1" fill="#1a10fd" d="M 267.5,164.5 C 268.473,164.987 269.473,165.487 270.5,166C 268.941,169.295 266.607,171.961 263.5,174C 264.593,175.365 265.926,175.699 267.5,175C 266.567,173.392 267.233,172.559 269.5,172.5C 279.538,178.852 290.205,184.186 301.5,188.5C 305.033,190.746 308.367,193.413 311.5,196.5C 316.164,198.377 320.83,200.377 325.5,202.5C 328.094,206.667 331.594,208 336,206.5C 338.135,209.813 340.968,212.146 344.5,213.5C 344.816,219.349 345.482,225.016 346.5,230.5C 346.5,232.5 346.5,234.5 346.5,236.5C 344.409,236.318 342.409,236.652 340.5,237.5C 336.876,233.422 332.709,230.088 328,227.5C 324.571,228.295 321.737,227.128 319.5,224C 316.077,224.145 314.077,222.645 313.5,219.5C 310.513,218.742 307.513,217.909 304.5,217C 301.965,214.65 298.965,213.15 295.5,212.5C 293.415,210.918 291.915,208.918 291,206.5C 290.439,207.022 289.772,207.355 289,207.5C 284.299,203.794 279.132,200.961 273.5,199C 271.609,196.198 268.942,195.032 265.5,195.5C 265.5,194.5 265.5,193.5 265.5,192.5C 264.178,192.33 263.011,192.663 262,193.5C 261.667,192.5 261.333,191.5 261,190.5C 257.996,188.326 255.163,185.992 252.5,183.5C 250.905,182.566 249.239,182.566 247.5,183.5C 250.167,180.5 252.833,177.5 255.5,174.5C 255.328,173.508 255.662,172.842 256.5,172.5C 260.352,170.075 264.019,167.409 267.5,164.5 Z"/></g>
<g><path style="opacity:1" fill="#233ef8" d="M 255.5,174.5 C 252.833,177.5 250.167,180.5 247.5,183.5C 245.098,185.909 242.431,187.909 239.5,189.5C 240.167,188.5 240.833,187.5 241.5,186.5C 242.5,186.167 243.167,185.5 243.5,184.5C 246.5,182.167 249.167,179.5 251.5,176.5C 252.605,175.4 253.938,174.733 255.5,174.5 Z"/></g>
<g><path style="opacity:1" fill="#371acc" d="M 343.5,167.5 C 344.167,173.167 344.833,178.833 345.5,184.5C 345.5,188.5 345.5,192.5 345.5,196.5C 343.917,187.046 343.251,177.379 343.5,167.5 Z"/></g>
<g><path style="opacity:1" fill="#0b13fe" d="M 346.5,236.5 C 348.04,246.108 348.54,255.775 348,265.5C 345.356,263.036 342.19,261.536 338.5,261C 337.833,260 337.167,259 336.5,258C 331.654,255.443 326.988,252.609 322.5,249.5C 306.232,242.034 290.565,233.534 275.5,224C 267.107,219.471 258.441,215.471 249.5,212C 246.686,210.169 243.852,208.335 241,206.5C 240.439,207.022 239.772,207.355 239,207.5C 236.553,205.369 234.053,203.369 231.5,201.5C 232.11,200.609 232.443,199.609 232.5,198.5C 234.5,196.167 236.5,193.833 238.5,191.5C 238.833,190.833 239.167,190.167 239.5,189.5C 242.431,187.909 245.098,185.909 247.5,183.5C 249.239,182.566 250.905,182.566 252.5,183.5C 255.163,185.992 257.996,188.326 261,190.5C 261.333,191.5 261.667,192.5 262,193.5C 263.011,192.663 264.178,192.33 265.5,192.5C 265.5,193.5 265.5,194.5 265.5,195.5C 268.942,195.032 271.609,196.198 273.5,199C 279.132,200.961 284.299,203.794 289,207.5C 289.772,207.355 290.439,207.022 291,206.5C 291.915,208.918 293.415,210.918 295.5,212.5C 298.965,213.15 301.965,214.65 304.5,217C 307.513,217.909 310.513,218.742 313.5,219.5C 314.077,222.645 316.077,224.145 319.5,224C 321.737,227.128 324.571,228.295 328,227.5C 332.709,230.088 336.876,233.422 340.5,237.5C 342.409,236.652 344.409,236.318 346.5,236.5 Z"/></g>
<g><path style="opacity:0.298" fill="#1f1789" d="M 345.5,184.5 C 346.707,191.639 347.374,198.972 347.5,206.5C 346.833,203.5 346.167,200.5 345.5,197.5C 345.5,197.167 345.5,196.833 345.5,196.5C 345.5,192.5 345.5,188.5 345.5,184.5 Z"/></g>
<g><path style="opacity:1" fill="#2da5fe" d="M 160.5,198.5 C 158.167,198.5 155.833,198.5 153.5,198.5C 153.5,199.5 153.5,200.5 153.5,201.5C 157.82,201.959 158.487,203.792 155.5,207C 156.721,210.446 156.721,213.946 155.5,217.5C 155.875,219.459 156.541,221.293 157.5,223C 156.316,224.18 155.649,225.68 155.5,227.5C 156.571,238.15 156.737,248.817 156,259.5C 155.333,260.833 154.667,262.167 154,263.5C 153.917,267.277 153.75,270.944 153.5,274.5C 148.806,279.86 143.806,284.86 138.5,289.5C 138.263,284.99 140.263,282.156 144.5,281C 143.577,278.959 143.244,276.792 143.5,274.5C 144.873,274.657 146.207,274.49 147.5,274C 145.994,271.902 144.994,269.568 144.5,267C 145.625,263.978 145.625,260.978 144.5,258C 145.398,255.906 146.065,253.74 146.5,251.5C 145.638,246.693 144.972,241.859 144.5,237C 145.934,227.217 146.601,217.384 146.5,207.5C 145.325,207.719 144.325,207.386 143.5,206.5C 145.03,204.774 146.03,202.774 146.5,200.5C 145.624,199.749 144.624,199.249 143.5,199C 144.167,198.667 144.833,198.333 145.5,198C 143.842,197.275 143.342,196.108 144,194.5C 149.879,194.885 155.379,196.218 160.5,198.5 Z"/></g>
<g><path style="opacity:1" fill="#2250f8" d="M 238.5,191.5 C 236.5,193.833 234.5,196.167 232.5,198.5C 229.5,201.167 226.5,203.833 223.5,206.5C 225.091,203.569 227.091,200.902 229.5,198.5C 232.233,195.761 235.233,193.427 238.5,191.5 Z"/></g>
<g><path style="opacity:1" fill="#1026fd" d="M 231.5,201.5 C 234.053,203.369 236.553,205.369 239,207.5C 239.772,207.355 240.439,207.022 241,206.5C 243.852,208.335 246.686,210.169 249.5,212C 258.441,215.471 267.107,219.471 275.5,224C 290.565,233.534 306.232,242.034 322.5,249.5C 326.988,252.609 331.654,255.443 336.5,258C 337.167,259 337.833,260 338.5,261C 342.19,261.536 345.356,263.036 348,265.5C 348.54,255.775 348.04,246.108 346.5,236.5C 346.5,234.5 346.5,232.5 346.5,230.5C 346.5,226.5 346.5,222.5 346.5,218.5C 347.261,224.534 348.261,230.534 349.5,236.5C 349.5,238.5 349.5,240.5 349.5,242.5C 349.5,249.167 349.5,255.833 349.5,262.5C 349.817,265.572 349.484,268.572 348.5,271.5C 347.833,271.833 347.167,272.167 346.5,272.5C 345.667,270.5 344.833,268.5 344,266.5C 343.51,267.793 343.343,269.127 343.5,270.5C 339.842,271.32 337.509,269.987 336.5,266.5C 325.496,262.831 315.496,257.331 306.5,250C 298.683,246.591 291.016,242.924 283.5,239C 277.684,234.535 271.351,230.868 264.5,228C 261.045,224.939 257.045,222.939 252.5,222C 245.517,217.872 238.184,214.372 230.5,211.5C 225.904,208.124 226.237,204.79 231.5,201.5 Z"/></g>
<g><path style="opacity:1" fill="#1b45fe" d="M 222.5,207.5 C 221.833,209.167 221.167,210.833 220.5,212.5C 218.855,213.479 217.521,214.812 216.5,216.5C 219.569,217.403 221.902,219.236 223.5,222C 225.218,222.346 226.885,222.846 228.5,223.5C 231.275,226.086 234.275,228.253 237.5,230C 244.382,231.72 251.049,234.054 257.5,237C 258.833,238.333 260.167,239.667 261.5,241C 272.747,246.859 284.081,252.526 295.5,258C 298.81,261.386 302.81,263.552 307.5,264.5C 308.833,265.833 310.167,267.167 311.5,268.5C 324.994,274.432 337.994,281.099 350.5,288.5C 350.817,291.572 350.484,294.572 349.5,297.5C 344.857,294.584 340.357,291.584 336,288.5C 335.667,288.833 335.333,289.167 335,289.5C 332.667,287.833 330.333,286.167 328,284.5C 327.667,284.833 327.333,285.167 327,285.5C 326.221,284.272 325.221,283.272 324,282.5C 317.924,279.546 311.757,276.713 305.5,274C 298.247,268.226 290.581,263.893 282.5,261C 279.437,259.475 276.77,257.475 274.5,255C 256.387,246.73 238.054,238.063 219.5,229C 217.452,227.319 215.285,225.819 213,224.5C 211.991,222.975 211.491,221.308 211.5,219.5C 212.833,217.833 214.167,216.167 215.5,214.5C 216.473,212.851 217.473,211.184 218.5,209.5C 219.605,208.4 220.938,207.733 222.5,207.5 Z"/></g>
<g><path style="opacity:1" fill="#1430fd" d="M 232.5,198.5 C 232.443,199.609 232.11,200.609 231.5,201.5C 226.237,204.79 225.904,208.124 230.5,211.5C 238.184,214.372 245.517,217.872 252.5,222C 257.045,222.939 261.045,224.939 264.5,228C 271.351,230.868 277.684,234.535 283.5,239C 291.016,242.924 298.683,246.591 306.5,250C 315.496,257.331 325.496,262.831 336.5,266.5C 337.509,269.987 339.842,271.32 343.5,270.5C 343.343,269.127 343.51,267.793 344,266.5C 344.833,268.5 345.667,270.5 346.5,272.5C 347.167,272.167 347.833,271.833 348.5,271.5C 349.484,268.572 349.817,265.572 349.5,262.5C 350.477,265.287 350.81,268.287 350.5,271.5C 350.5,275.5 350.5,279.5 350.5,283.5C 339.813,279.764 329.813,274.597 320.5,268C 310.547,263.692 301.214,258.359 292.5,252C 284.392,248.78 276.726,244.78 269.5,240C 267.564,239.187 265.564,238.687 263.5,238.5C 263.439,235.95 262.106,234.45 259.5,234C 254.497,232.17 249.497,230.504 244.5,229C 238.595,225.147 232.595,221.48 226.5,218C 222.298,218.978 220.298,217.145 220.5,212.5C 221.167,210.833 221.833,209.167 222.5,207.5C 222.5,206.833 222.833,206.5 223.5,206.5C 226.5,203.833 229.5,201.167 232.5,198.5 Z"/></g>
<g><path style="opacity:1" fill="#1e4dfd" d="M 211.5,219.5 C 211.491,221.308 211.991,222.975 213,224.5C 215.285,225.819 217.452,227.319 219.5,229C 238.054,238.063 256.387,246.73 274.5,255C 276.77,257.475 279.437,259.475 282.5,261C 290.581,263.893 298.247,268.226 305.5,274C 311.757,276.713 317.924,279.546 324,282.5C 325.221,283.272 326.221,284.272 327,285.5C 327.333,285.167 327.667,284.833 328,284.5C 330.333,286.167 332.667,287.833 335,289.5C 335.333,289.167 335.667,288.833 336,288.5C 340.357,291.584 344.857,294.584 349.5,297.5C 350.484,294.572 350.817,291.572 350.5,288.5C 350.5,286.833 350.5,285.167 350.5,283.5C 350.5,279.5 350.5,275.5 350.5,271.5C 351.49,277.645 351.823,283.978 351.5,290.5C 351.816,293.978 351.316,297.312 350,300.5C 334.364,294.723 319.531,287.223 305.5,278C 289.853,269.844 274.52,261.178 259.5,252C 251.963,249.503 244.797,246.336 238,242.5C 233.51,241.226 229.177,239.559 225,237.5C 220.054,234.21 214.887,231.377 209.5,229C 207.845,227.556 207.178,225.722 207.5,223.5C 208.5,221.833 209.833,220.5 211.5,219.5 Z"/></g>
<g><path style="opacity:0.839" fill="#2288b0" d="M 85.5,162.5 C 85.8333,162.5 86.1667,162.5 86.5,162.5C 86.5,174.833 86.5,187.167 86.5,199.5C 86.5,200.167 86.5,200.833 86.5,201.5C 86.5,217.5 86.5,233.5 86.5,249.5C 85.3574,266.159 84.3574,282.826 83.5,299.5C 83.9839,253.83 84.6506,208.164 85.5,162.5 Z"/></g>
<g><path style="opacity:1" fill="#2154fe" d="M 207.5,223.5 C 207.178,225.722 207.845,227.556 209.5,229C 214.887,231.377 220.054,234.21 225,237.5C 229.177,239.559 233.51,241.226 238,242.5C 244.797,246.336 251.963,249.503 259.5,252C 274.52,261.178 289.853,269.844 305.5,278C 319.531,287.223 334.364,294.723 350,300.5C 351.316,297.312 351.816,293.978 351.5,290.5C 352.451,291.919 352.784,293.585 352.5,295.5C 352.5,299.833 352.5,304.167 352.5,308.5C 335.217,297.94 317.384,288.273 299,279.5C 292.158,275.103 285.325,270.769 278.5,266.5C 270.799,263.158 263.132,259.825 255.5,256.5C 243.662,249.58 231.328,243.747 218.5,239C 214.159,235.828 209.492,233.161 204.5,231C 205.252,230.329 205.586,229.496 205.5,228.5C 205.12,226.302 205.787,224.635 207.5,223.5 Z"/></g>
<g><path style="opacity:0.722" fill="#1d19a8" d="M 345.5,197.5 C 346.167,200.5 346.833,203.5 347.5,206.5C 348.388,216.481 349.054,226.481 349.5,236.5C 348.261,230.534 347.261,224.534 346.5,218.5C 346.5,217.833 346.5,217.167 346.5,216.5C 346.1,210.171 345.767,203.838 345.5,197.5 Z"/></g>
<g><path style="opacity:1" fill="#235afe" d="M 205.5,228.5 C 205.586,229.496 205.252,230.329 204.5,231C 209.492,233.161 214.159,235.828 218.5,239C 231.328,243.747 243.662,249.58 255.5,256.5C 263.132,259.825 270.799,263.158 278.5,266.5C 285.325,270.769 292.158,275.103 299,279.5C 317.384,288.273 335.217,297.94 352.5,308.5C 352.5,309.5 352.5,310.5 352.5,311.5C 348.769,310.304 345.102,308.804 341.5,307C 339.281,303.955 336.281,302.789 332.5,303.5C 332.67,302.178 332.337,301.011 331.5,300C 324.516,297.424 318.016,293.924 312,289.5C 309.979,290.236 308.479,289.403 307.5,287C 300.572,285.536 294.905,282.036 290.5,276.5C 289.833,276.833 289.167,277.167 288.5,277.5C 280.389,273.945 272.723,269.612 265.5,264.5C 262.232,263.513 258.898,263.18 255.5,263.5C 255.719,262.325 255.386,261.325 254.5,260.5C 246.572,257.202 239.239,252.868 232.5,247.5C 226.65,246.101 220.983,244.268 215.5,242C 214.333,241.5 213.5,240.667 213,239.5C 211.16,240.833 210.66,240.666 211.5,239C 207.96,237.392 204.96,235.059 202.5,232C 203.163,230.482 204.163,229.315 205.5,228.5 Z"/></g>
<g><path style="opacity:1" fill="#2cbefe" d="M 86.5,201.5 C 88.8391,202.637 91.1725,202.804 93.5,202C 94.3366,203.011 94.67,204.178 94.5,205.5C 92.8916,204.462 91.8916,205.129 91.5,207.5C 92.8179,210.304 94.3179,212.971 96,215.5C 96.1667,216.833 96.3333,218.167 96.5,219.5C 93.2347,229.696 92.2347,240.029 93.5,250.5C 95.3904,250.703 96.8904,250.037 98,248.5C 98.498,245.518 98.6646,242.518 98.5,239.5C 100.911,239.863 102.411,238.863 103,236.5C 103.45,229.912 104.784,223.578 107,217.5C 107.71,216.027 108.876,215.36 110.5,215.5C 110.086,220.074 109.419,224.574 108.5,229C 109.849,229.772 110.682,230.939 111,232.5C 111.828,236.871 111.661,241.205 110.5,245.5C 108.915,242.728 107.915,242.894 107.5,246C 107.933,247.928 108.6,249.761 109.5,251.5C 107.044,254.672 107.711,257.339 111.5,259.5C 110.758,260.287 109.925,260.953 109,261.5C 108.812,267.748 108.312,273.915 107.5,280C 108.316,281.923 108.983,283.923 109.5,286C 108.453,287.68 107.787,289.514 107.5,291.5C 108.116,295.145 108.45,298.812 108.5,302.5C 110.484,302.383 112.15,303.05 113.5,304.5C 110.867,304.691 108.534,306.024 106.5,308.5C 108.336,309.919 110.336,311.086 112.5,312C 108.677,313.641 106.677,316.474 106.5,320.5C 104.801,320.34 103.134,320.506 101.5,321C 102.38,322.356 102.714,323.856 102.5,325.5C 102.5,326.167 102.167,326.5 101.5,326.5C 99.2439,322.493 97.9106,318.326 97.5,314C 99.8161,310.869 101.149,307.369 101.5,303.5C 100.5,303.5 99.5,303.5 98.5,303.5C 99.3868,296.787 99.7202,290.121 99.5,283.5C 99.1596,279.442 98.4929,275.442 97.5,271.5C 96.6919,271.192 96.0253,270.692 95.5,270C 96.2546,267.825 97.088,265.659 98,263.5C 98.6838,264.784 98.5171,265.951 97.5,267C 98.9675,268.098 99.8008,269.598 100,271.5C 101.91,267.506 101.744,263.672 99.5,260C 100.293,258.915 100.96,257.748 101.5,256.5C 100.761,253.933 100.761,251.6 101.5,249.5C 101.192,248.692 100.692,248.025 100,247.5C 99.4282,249.892 98.2616,251.892 96.5,253.5C 95.8179,257.138 95.3179,260.805 95,264.5C 93.9887,263.663 92.8221,263.33 91.5,263.5C 91.8226,267.226 91.4892,270.893 90.5,274.5C 89.0295,273.619 88.1962,272.286 88,270.5C 87.6667,270.833 87.3333,271.167 87,271.5C 86.5003,264.174 86.3337,256.841 86.5,249.5C 86.5,233.5 86.5,217.5 86.5,201.5 Z"/></g>
<g><path style="opacity:1" fill="#2866fd" d="M 199.5,231.5 C 206.6,241.715 216.266,247.882 228.5,250C 231.509,252.393 234.509,254.726 237.5,257C 248.092,261.948 258.425,267.282 268.5,273C 270.9,273.186 273.234,273.686 275.5,274.5C 283.763,278.869 291.763,283.702 299.5,289C 308.59,294.172 317.923,298.839 327.5,303C 334.193,307.853 340.86,311.52 347.5,314C 351.301,318.747 352.967,317.914 352.5,311.5C 352.5,310.5 352.5,309.5 352.5,308.5C 352.5,304.167 352.5,299.833 352.5,295.5C 352.833,295.5 353.167,295.5 353.5,295.5C 353.5,297.167 353.5,298.833 353.5,300.5C 353.5,306.833 353.5,313.167 353.5,319.5C 352.71,320.609 352.21,321.942 352,323.5C 351.751,322.376 351.251,321.376 350.5,320.5C 324.469,306.822 298.803,292.655 273.5,278C 271.5,277.667 269.5,277.333 267.5,277C 253.004,268.424 238.337,260.424 223.5,253C 219.204,251.185 215.204,248.852 211.5,246C 210.207,245.51 208.873,245.343 207.5,245.5C 205.711,241.188 202.877,237.521 199,234.5C 198.26,233.251 198.427,232.251 199.5,231.5 Z"/></g>
<g><path style="opacity:1" fill="#37bff8" d="M 101.5,326.5 C 98.8046,329.526 96.1379,332.526 93.5,335.5C 90.1047,338.902 86.438,341.902 82.5,344.5C 82.4379,329.489 82.7712,314.489 83.5,299.5C 84.3574,282.826 85.3574,266.159 86.5,249.5C 86.3337,256.841 86.5003,264.174 87,271.5C 87.3333,271.167 87.6667,270.833 88,270.5C 88.1962,272.286 89.0295,273.619 90.5,274.5C 91.4892,270.893 91.8226,267.226 91.5,263.5C 92.8221,263.33 93.9887,263.663 95,264.5C 95.3179,260.805 95.8179,257.138 96.5,253.5C 98.2616,251.892 99.4282,249.892 100,247.5C 100.692,248.025 101.192,248.692 101.5,249.5C 100.761,251.6 100.761,253.933 101.5,256.5C 100.96,257.748 100.293,258.915 99.5,260C 101.744,263.672 101.91,267.506 100,271.5C 99.8008,269.598 98.9675,268.098 97.5,267C 98.5171,265.951 98.6838,264.784 98,263.5C 97.088,265.659 96.2546,267.825 95.5,270C 96.0253,270.692 96.6919,271.192 97.5,271.5C 98.4929,275.442 99.1596,279.442 99.5,283.5C 99.7202,290.121 99.3868,296.787 98.5,303.5C 99.5,303.5 100.5,303.5 101.5,303.5C 101.149,307.369 99.8161,310.869 97.5,314C 97.9106,318.326 99.2439,322.493 101.5,326.5 Z"/></g>
<g><path style="opacity:1" fill="#2f7ffe" d="M 191.5,238.5 C 192.038,240.117 192.371,241.784 192.5,243.5C 193.873,243.343 195.207,243.51 196.5,244C 202.64,247.776 208.974,251.276 215.5,254.5C 217.461,256.963 219.628,259.297 222,261.5C 262.421,282.297 302.921,304.131 343.5,327C 346.422,328.603 349.422,329.77 352.5,330.5C 352.778,332.346 352.111,333.68 350.5,334.5C 310.754,311.925 271.088,290.592 231.5,270.5C 227.878,267.375 223.878,264.875 219.5,263C 217.932,258.097 214.599,255.43 209.5,255C 203.325,251.412 196.991,248.078 190.5,245C 188.98,242.448 189.313,240.282 191.5,238.5 Z"/></g>
<g><path style="opacity:1" fill="#173bfe" d="M 220.5,212.5 C 220.298,217.145 222.298,218.978 226.5,218C 232.595,221.48 238.595,225.147 244.5,229C 249.497,230.504 254.497,232.17 259.5,234C 262.106,234.45 263.439,235.95 263.5,238.5C 265.564,238.687 267.564,239.187 269.5,240C 276.726,244.78 284.392,248.78 292.5,252C 301.214,258.359 310.547,263.692 320.5,268C 329.813,274.597 339.813,279.764 350.5,283.5C 350.5,285.167 350.5,286.833 350.5,288.5C 337.994,281.099 324.994,274.432 311.5,268.5C 310.167,267.167 308.833,265.833 307.5,264.5C 302.81,263.552 298.81,261.386 295.5,258C 284.081,252.526 272.747,246.859 261.5,241C 260.167,239.667 258.833,238.333 257.5,237C 251.049,234.054 244.382,231.72 237.5,230C 234.275,228.253 231.275,226.086 228.5,223.5C 226.885,222.846 225.218,222.346 223.5,222C 221.902,219.236 219.569,217.403 216.5,216.5C 217.521,214.812 218.855,213.479 220.5,212.5 Z"/></g>
<g><path style="opacity:1" fill="#2560fe" d="M 215.5,214.5 C 214.167,216.167 212.833,217.833 211.5,219.5C 209.833,220.5 208.5,221.833 207.5,223.5C 205.787,224.635 205.12,226.302 205.5,228.5C 204.163,229.315 203.163,230.482 202.5,232C 204.96,235.059 207.96,237.392 211.5,239C 210.66,240.666 211.16,240.833 213,239.5C 213.5,240.667 214.333,241.5 215.5,242C 220.983,244.268 226.65,246.101 232.5,247.5C 239.239,252.868 246.572,257.202 254.5,260.5C 255.386,261.325 255.719,262.325 255.5,263.5C 258.898,263.18 262.232,263.513 265.5,264.5C 272.723,269.612 280.389,273.945 288.5,277.5C 289.167,277.167 289.833,276.833 290.5,276.5C 294.905,282.036 300.572,285.536 307.5,287C 308.479,289.403 309.979,290.236 312,289.5C 318.016,293.924 324.516,297.424 331.5,300C 332.337,301.011 332.67,302.178 332.5,303.5C 336.281,302.789 339.281,303.955 341.5,307C 345.102,308.804 348.769,310.304 352.5,311.5C 352.967,317.914 351.301,318.747 347.5,314C 340.86,311.52 334.193,307.853 327.5,303C 317.923,298.839 308.59,294.172 299.5,289C 291.763,283.702 283.763,278.869 275.5,274.5C 273.234,273.686 270.9,273.186 268.5,273C 258.425,267.282 248.092,261.948 237.5,257C 234.509,254.726 231.509,252.393 228.5,250C 216.266,247.882 206.6,241.715 199.5,231.5C 201.252,229.754 202.585,227.754 203.5,225.5C 206.167,222.5 208.833,219.5 211.5,216.5C 212.605,215.4 213.938,214.733 215.5,214.5 Z"/></g>
<g><path style="opacity:0.575" fill="#1428a9" d="M 349.5,242.5 C 351.614,259.959 352.947,277.626 353.5,295.5C 353.167,295.5 352.833,295.5 352.5,295.5C 352.784,293.585 352.451,291.919 351.5,290.5C 351.823,283.978 351.49,277.645 350.5,271.5C 350.81,268.287 350.477,265.287 349.5,262.5C 349.5,255.833 349.5,249.167 349.5,242.5 Z"/></g>
<g><path style="opacity:1" fill="#2d77fb" d="M 215.5,254.5 C 225.832,261.27 236.832,267.103 248.5,272C 251.759,275.377 255.759,277.544 260.5,278.5C 266.073,282.521 272.073,285.687 278.5,288C 301.578,300.375 324.578,313.042 347.5,326C 349.218,326.346 350.885,326.846 352.5,327.5C 353.386,326.675 353.719,325.675 353.5,324.5C 353.5,322.833 353.5,321.167 353.5,319.5C 353.5,313.167 353.5,306.833 353.5,300.5C 354.565,307.317 355.232,314.317 355.5,321.5C 354.674,325.982 354.174,330.649 354,335.5C 353.802,333.618 353.302,331.952 352.5,330.5C 349.422,329.77 346.422,328.603 343.5,327C 302.921,304.131 262.421,282.297 222,261.5C 219.628,259.297 217.461,256.963 215.5,254.5 Z"/></g>
<g><path style="opacity:1" fill="#2a6dfe" d="M 203.5,225.5 C 202.585,227.754 201.252,229.754 199.5,231.5C 198.427,232.251 198.26,233.251 199,234.5C 202.877,237.521 205.711,241.188 207.5,245.5C 208.873,245.343 210.207,245.51 211.5,246C 215.204,248.852 219.204,251.185 223.5,253C 238.337,260.424 253.004,268.424 267.5,277C 269.5,277.333 271.5,277.667 273.5,278C 298.803,292.655 324.469,306.822 350.5,320.5C 351.251,321.376 351.751,322.376 352,323.5C 352.21,321.942 352.71,320.609 353.5,319.5C 353.5,321.167 353.5,322.833 353.5,324.5C 352.883,324.611 352.383,324.944 352,325.5C 322.451,308.143 292.284,291.976 261.5,277C 246.531,267.83 231.198,259.497 215.5,252C 210.654,248.667 205.654,245.5 200.5,242.5C 199.914,242.709 199.414,243.043 199,243.5C 196.979,241.61 195.146,239.61 193.5,237.5C 195.703,232.624 199.036,228.624 203.5,225.5 Z"/></g>
<g><path style="opacity:1" fill="#3296fe" d="M 185.5,207.5 C 184.127,207.343 182.793,207.51 181.5,208C 186.626,209.436 191.792,210.603 197,211.5C 197.333,211.167 197.667,210.833 198,210.5C 199.461,212.468 201.295,213.802 203.5,214.5C 199.652,214.76 195.985,214.094 192.5,212.5C 189.499,212.56 188.499,213.727 189.5,216C 189.241,217.261 188.574,218.261 187.5,219C 188.981,219.98 190.315,221.147 191.5,222.5C 190.675,223.386 189.675,223.719 188.5,223.5C 188.505,227.534 188.838,231.534 189.5,235.5C 186.104,235.633 185.771,236.633 188.5,238.5C 183.962,241.84 183.295,245.507 186.5,249.5C 195.766,253.969 205.099,258.136 214.5,262C 220.798,265.636 226.132,270.303 230.5,276C 272.23,298.074 313.897,320.241 355.5,342.5C 355.5,342.833 355.5,343.167 355.5,343.5C 355.949,345.977 355.283,347.977 353.5,349.5C 338.307,340.942 323.307,332.108 308.5,323C 302.051,320.609 295.718,317.942 289.5,315C 275.025,306.622 260.358,298.622 245.5,291C 235.787,283.289 225.787,275.955 215.5,269C 203.04,264.019 191.04,258.186 179.5,251.5C 176.661,253.42 173.661,255.087 170.5,256.5C 170.094,255.443 170.094,254.109 170.5,252.5C 167.03,252.29 167.03,251.123 170.5,249C 169.234,248.691 168.067,248.191 167,247.5C 166.503,244.854 166.336,242.187 166.5,239.5C 167.5,239.5 168.5,239.5 169.5,239.5C 168.429,230.862 167.429,222.195 166.5,213.5C 165.5,213.167 164.833,212.5 164.5,211.5C 165.491,210.335 166.491,209.168 167.5,208C 167.18,206.347 166.18,205.347 164.5,205C 165.772,203.954 167.272,203.454 169,203.5C 174.496,205.361 179.996,206.694 185.5,207.5 Z"/></g>
<g><path style="opacity:1" fill="#2c73fe" d="M 193.5,237.5 C 195.146,239.61 196.979,241.61 199,243.5C 199.414,243.043 199.914,242.709 200.5,242.5C 205.654,245.5 210.654,248.667 215.5,252C 231.198,259.497 246.531,267.83 261.5,277C 292.284,291.976 322.451,308.143 352,325.5C 352.383,324.944 352.883,324.611 353.5,324.5C 353.719,325.675 353.386,326.675 352.5,327.5C 350.885,326.846 349.218,326.346 347.5,326C 324.578,313.042 301.578,300.375 278.5,288C 272.073,285.687 266.073,282.521 260.5,278.5C 255.759,277.544 251.759,275.377 248.5,272C 236.832,267.103 225.832,261.27 215.5,254.5C 208.974,251.276 202.64,247.776 196.5,244C 195.207,243.51 193.873,243.343 192.5,243.5C 192.371,241.784 192.038,240.117 191.5,238.5C 192.167,238.167 192.833,237.833 193.5,237.5 Z"/></g>
<g><path style="opacity:1" fill="#3189fe" d="M 203.5,214.5 C 205.78,216.223 208.447,216.889 211.5,216.5C 208.833,219.5 206.167,222.5 203.5,225.5C 199.036,228.624 195.703,232.624 193.5,237.5C 192.833,237.833 192.167,238.167 191.5,238.5C 189.313,240.282 188.98,242.448 190.5,245C 196.991,248.078 203.325,251.412 209.5,255C 214.599,255.43 217.932,258.097 219.5,263C 223.878,264.875 227.878,267.375 231.5,270.5C 271.088,290.592 310.754,311.925 350.5,334.5C 352.111,333.68 352.778,332.346 352.5,330.5C 353.302,331.952 353.802,333.618 354,335.5C 354.174,330.649 354.674,325.982 355.5,321.5C 355.5,323.167 355.5,324.833 355.5,326.5C 355.5,331.833 355.5,337.167 355.5,342.5C 313.897,320.241 272.23,298.074 230.5,276C 226.132,270.303 220.798,265.636 214.5,262C 205.099,258.136 195.766,253.969 186.5,249.5C 183.295,245.507 183.962,241.84 188.5,238.5C 185.771,236.633 186.104,235.633 189.5,235.5C 188.838,231.534 188.505,227.534 188.5,223.5C 189.675,223.719 190.675,223.386 191.5,222.5C 190.315,221.147 188.981,219.98 187.5,219C 188.574,218.261 189.241,217.261 189.5,216C 188.499,213.727 189.499,212.56 192.5,212.5C 195.985,214.094 199.652,214.76 203.5,214.5 Z"/></g>
<g><path style="opacity:1" fill="#4b67f7" d="M 358.5,402.5 C 358.5,403.833 358.5,405.167 358.5,406.5C 349.65,400.907 340.316,396.074 330.5,392C 329.5,390.333 328.167,389 326.5,388C 323.202,387.513 320.202,386.347 317.5,384.5C 316.914,384.709 316.414,385.043 316,385.5C 315.028,383.695 313.861,382.028 312.5,380.5C 305.741,377.373 299.574,373.373 294,368.5C 292.253,370.486 290.42,372.486 288.5,374.5C 282.389,370.898 276.389,367.065 270.5,363C 257.159,356.32 243.826,349.653 230.5,343C 223.787,339.317 217.454,335.15 211.5,330.5C 199.691,325.679 188.524,319.679 178,312.5C 177.667,312.833 177.333,313.167 177,313.5C 173.997,310.777 170.497,309.111 166.5,308.5C 166.5,307.5 166.5,306.5 166.5,305.5C 164.669,304.948 163.003,304.948 161.5,305.5C 154.618,301.207 147.618,297.54 140.5,294.5C 142.151,293.081 143.984,291.747 146,290.5C 149.736,293.483 153.569,296.317 157.5,299C 160.198,298.469 162.865,298.969 165.5,300.5C 174.782,307.084 184.449,312.25 194.5,316C 202.661,322.834 211.828,328 222,331.5C 223.674,332.835 225.341,334.169 227,335.5C 229.598,334.902 231.431,336.069 232.5,339C 238.062,340.886 243.728,343.386 249.5,346.5C 254.44,350.629 259.44,354.129 264.5,357C 269.806,358.476 274.806,360.643 279.5,363.5C 282.651,363.001 285.984,362.501 289.5,362C 297.039,366.562 304.373,371.396 311.5,376.5C 327.536,384.685 343.202,393.351 358.5,402.5 Z"/></g>
<g><path style="opacity:1" fill="#3aa7fe" d="M 355.5,352.5 C 355.154,354.363 354.154,355.196 352.5,355C 319.942,336.183 286.942,318.183 253.5,301C 245.69,296.594 238.023,291.927 230.5,287C 212.657,278.383 194.99,269.383 177.5,260C 174.588,257.942 171.921,258.109 169.5,260.5C 169.414,259.504 169.748,258.671 170.5,258C 172.081,257.293 173.581,256.46 175,255.5C 192.879,264.523 210.712,273.69 228.5,283C 243.421,291.131 258.088,299.798 272.5,309C 298.132,320.921 323.132,334.255 347.5,349C 350.81,348.771 352.644,350.271 353,353.5C 353.342,351.381 354.175,351.047 355.5,352.5 Z"/></g>
<g><path style="opacity:1" fill="#4c60f7" d="M 140.5,294.5 C 147.618,297.54 154.618,301.207 161.5,305.5C 163.003,304.948 164.669,304.948 166.5,305.5C 166.5,306.5 166.5,307.5 166.5,308.5C 170.497,309.111 173.997,310.777 177,313.5C 177.333,313.167 177.667,312.833 178,312.5C 188.524,319.679 199.691,325.679 211.5,330.5C 217.454,335.15 223.787,339.317 230.5,343C 243.826,349.653 257.159,356.32 270.5,363C 276.389,367.065 282.389,370.898 288.5,374.5C 290.42,372.486 292.253,370.486 294,368.5C 299.574,373.373 305.741,377.373 312.5,380.5C 313.861,382.028 315.028,383.695 316,385.5C 316.414,385.043 316.914,384.709 317.5,384.5C 320.202,386.347 323.202,387.513 326.5,388C 328.167,389 329.5,390.333 330.5,392C 340.316,396.074 349.65,400.907 358.5,406.5C 359.913,409.219 360.58,412.219 360.5,415.5C 359.839,414.282 359.172,412.949 358.5,411.5C 357.914,411.709 357.414,412.043 357,412.5C 352.807,407.058 347.307,403.558 340.5,402C 331.939,396.888 323.272,392.055 314.5,387.5C 313.914,387.709 313.414,388.043 313,388.5C 311.98,387.109 311.147,385.609 310.5,384C 304.353,381.667 298.853,378.167 294,373.5C 293.802,375.911 292.636,377.577 290.5,378.5C 249.233,356.502 207.566,333.668 165.5,310C 159.744,309.206 154.911,306.706 151,302.5C 148.79,303.749 146.624,303.582 144.5,302C 141.978,299.91 139.312,298.076 136.5,296.5C 137.514,295.326 138.847,294.66 140.5,294.5 Z"/></g>
<g><path style="opacity:1" fill="#4d5af6" d="M 136.5,296.5 C 139.312,298.076 141.978,299.91 144.5,302C 146.624,303.582 148.79,303.749 151,302.5C 154.911,306.706 159.744,309.206 165.5,310C 207.566,333.668 249.233,356.502 290.5,378.5C 292.636,377.577 293.802,375.911 294,373.5C 298.853,378.167 304.353,381.667 310.5,384C 311.147,385.609 311.98,387.109 313,388.5C 313.414,388.043 313.914,387.709 314.5,387.5C 323.272,392.055 331.939,396.888 340.5,402C 347.307,403.558 352.807,407.058 357,412.5C 357.414,412.043 357.914,411.709 358.5,411.5C 359.172,412.949 359.839,414.282 360.5,415.5C 360.5,417.5 360.5,419.5 360.5,421.5C 360.167,421.5 359.833,421.5 359.5,421.5C 360.32,417.842 358.987,415.509 355.5,414.5C 354.817,411.539 353.984,411.205 353,413.5C 352.626,412.584 352.126,411.75 351.5,411C 334.552,402.857 318.218,393.691 302.5,383.5C 300.844,385.022 299.677,384.689 299,382.5C 298.5,383 298,383.5 297.5,384C 298.731,385.183 298.731,386.349 297.5,387.5C 276.103,374.38 253.936,362.38 231,351.5C 230.044,350.421 229.211,349.255 228.5,348C 219.005,343.752 209.672,339.252 200.5,334.5C 181.081,322.207 160.581,311.873 139,303.5C 137.831,302.991 136.998,302.158 136.5,301C 135.251,300.26 134.251,300.427 133.5,301.5C 131.95,302.441 130.284,303.107 128.5,303.5C 129.08,301.251 130.413,299.585 132.5,298.5C 134.153,298.34 135.486,297.674 136.5,296.5 Z"/></g>
<g><path style="opacity:1" fill="#4474f4" d="M 126.5,303.5 C 123.833,306.5 121.167,309.5 118.5,312.5C 116.167,314.167 114.167,316.167 112.5,318.5C 112.167,318.5 111.833,318.5 111.5,318.5C 114.098,314.562 117.098,310.895 120.5,307.5C 122.246,305.748 124.246,304.415 126.5,303.5 Z"/></g>
<g><path style="opacity:1" fill="#4a6df8" d="M 358.5,402.5 C 343.202,393.351 327.536,384.685 311.5,376.5C 304.373,371.396 297.039,366.562 289.5,362C 285.984,362.501 282.651,363.001 279.5,363.5C 274.806,360.643 269.806,358.476 264.5,357C 259.44,354.129 254.44,350.629 249.5,346.5C 243.728,343.386 238.062,340.886 232.5,339C 231.431,336.069 229.598,334.902 227,335.5C 225.341,334.169 223.674,332.835 222,331.5C 211.828,328 202.661,322.834 194.5,316C 184.449,312.25 174.782,307.084 165.5,300.5C 162.865,298.969 160.198,298.469 157.5,299C 153.569,296.317 149.736,293.483 146,290.5C 143.984,291.747 142.151,293.081 140.5,294.5C 138.847,294.66 137.514,295.326 136.5,296.5C 135.486,297.674 134.153,298.34 132.5,298.5C 133.833,295.833 135.833,293.833 138.5,292.5C 139.708,291.766 141.041,291.433 142.5,291.5C 142.588,288.691 144.088,287.358 147,287.5C 150.855,288.899 154.688,290.399 158.5,292C 164.668,297.406 171.668,301.573 179.5,304.5C 182.4,307.199 185.567,309.533 189,311.5C 189.333,311.167 189.667,310.833 190,310.5C 205.313,319.821 220.98,328.487 237,336.5C 237.333,335.833 237.667,335.167 238,334.5C 240.034,335.743 240.867,337.243 240.5,339C 251.706,344.244 262.373,350.244 272.5,357C 275.521,357.849 278.521,358.683 281.5,359.5C 281.343,358.127 281.51,356.793 282,355.5C 288.764,359.132 295.597,362.632 302.5,366C 307.325,370.461 312.492,373.628 318,375.5C 329.498,382.33 340.998,389.163 352.5,396C 357.122,395.802 359.122,397.968 358.5,402.5 Z"/></g>
<g><path style="opacity:1" fill="#3faefe" d="M 355.5,352.5 C 355.5,351.833 355.833,351.5 356.5,351.5C 356.705,357.878 356.372,364.211 355.5,370.5C 354.082,368.813 352.749,366.98 351.5,365C 318.961,347.101 286.461,329.268 254,311.5C 251.557,312.285 249.057,312.119 246.5,311C 244.869,308.549 243.036,308.049 241,309.5C 238.489,306.657 235.656,304.157 232.5,302C 221.463,296.81 211.13,291.144 201.5,285C 198.243,283.411 194.91,281.911 191.5,280.5C 183.883,274.712 175.883,269.545 167.5,265C 166.833,263.143 167.5,261.643 169.5,260.5C 171.921,258.109 174.588,257.942 177.5,260C 194.99,269.383 212.657,278.383 230.5,287C 238.023,291.927 245.69,296.594 253.5,301C 286.942,318.183 319.942,336.183 352.5,355C 354.154,355.196 355.154,354.363 355.5,352.5 Z"/></g>
<g><path style="opacity:1" fill="#487ffa" d="M 353.5,385.5 C 354.885,386.574 356.051,387.907 357,389.5C 357.333,389.167 357.667,388.833 358,388.5C 358.483,389.448 358.649,390.448 358.5,391.5C 356.801,391.66 355.134,391.494 353.5,391C 340.852,382.336 327.518,374.67 313.5,368C 302.363,360.259 290.696,353.259 278.5,347C 276.899,346.727 275.399,346.227 274,345.5C 273.667,346.167 273.333,346.833 273,347.5C 272.15,346.576 271.15,346.576 270,347.5C 265.878,345.272 261.545,343.605 257,342.5C 251.544,337.863 245.711,333.863 239.5,330.5C 230.866,327.181 222.533,323.348 214.5,319C 209.959,315.044 204.959,311.544 199.5,308.5C 198.914,308.709 198.414,309.043 198,309.5C 196.865,306.293 194.865,304.959 192,305.5C 182.675,300.426 173.508,295.259 164.5,290C 165.167,289.667 165.833,289.333 166.5,289C 162.833,287 159.167,285 155.5,283C 154.748,282.329 154.414,281.496 154.5,280.5C 154.369,279.761 154.536,279.094 155,278.5C 158.212,279.855 161.378,281.355 164.5,283C 166.608,285.895 168.941,288.561 171.5,291C 176.92,291.462 181.253,293.795 184.5,298C 202.552,306.28 220.052,315.78 237,326.5C 238.364,325.742 239.531,326.242 240.5,328C 242.608,328.36 244.608,329.027 246.5,330C 251.788,333.047 256.788,336.547 261.5,340.5C 264.723,342.08 268.056,342.914 271.5,343C 270.167,342.333 270.167,341.667 271.5,341C 287.552,347.599 302.552,356.265 316.5,367C 321.087,367.027 324.753,368.86 327.5,372.5C 330.746,374.039 333.912,375.706 337,377.5C 339.355,377.6 341.522,378.767 343.5,381C 346.786,382.596 350.12,384.096 353.5,385.5 Z"/></g>
<g><path style="opacity:1" fill="#5335f2" d="M 355.5,441.5 C 354.527,440.209 353.527,440.209 352.5,441.5C 351.614,440.675 351.281,439.675 351.5,438.5C 345.844,438.021 342.011,435.688 340,431.5C 339.667,431.833 339.333,432.167 339,432.5C 333.819,430.822 329.319,427.988 325.5,424C 322.049,423.253 321.716,423.92 324.5,426C 324,426.5 323.5,427 323,427.5C 314.922,422.877 306.755,418.377 298.5,414C 295.094,410.791 291.428,408.791 287.5,408C 282.45,404.721 277.283,401.554 272,398.5C 271.667,398.833 271.333,399.167 271,399.5C 265.038,394.099 258.205,390.099 250.5,387.5C 248.094,384.435 244.927,382.769 241,382.5C 230.645,376.735 220.479,370.568 210.5,364C 204.53,361.685 198.53,359.352 192.5,357C 191.348,354.851 189.848,353.018 188,351.5C 187.667,351.833 187.333,352.167 187,352.5C 175.935,345.915 164.435,340.082 152.5,335C 150.04,333.542 147.873,331.709 146,329.5C 145.667,329.833 145.333,330.167 145,330.5C 139.874,327.357 134.374,324.857 128.5,323C 127.62,321.644 127.286,320.144 127.5,318.5C 125.259,318.954 123.259,318.954 121.5,318.5C 121.987,317.527 122.487,316.527 123,315.5C 124.113,316.711 125.28,316.711 126.5,315.5C 133.445,320.139 140.778,323.972 148.5,327C 153.333,329.833 158.167,332.667 163,335.5C 163.333,335.167 163.667,334.833 164,334.5C 168.321,338.329 172.988,340.662 178,341.5C 183.456,346.19 189.622,349.69 196.5,352C 198.667,353.833 200.833,355.667 203,357.5C 203.333,357.167 203.667,356.833 204,356.5C 216.594,362.966 228.927,369.966 241,377.5C 241.333,377.167 241.667,376.833 242,376.5C 261.79,388.982 282.29,400.315 303.5,410.5C 306.841,414.5 311.175,416.333 316.5,416C 318.167,417 319.5,418.333 320.5,420C 321.549,420.492 322.549,420.326 323.5,419.5C 334.614,425.163 345.281,431.33 355.5,438C 354.829,438.986 354.829,440.153 355.5,441.5 Z"/></g>
<g><path style="opacity:1" fill="#4a5cf0" d="M 111.5,318.5 C 110.167,320.167 108.833,321.833 107.5,323.5C 103.5,326.833 99.8333,330.5 96.5,334.5C 95.791,335.404 94.791,335.737 93.5,335.5C 96.1379,332.526 98.8046,329.526 101.5,326.5C 102.167,326.5 102.5,326.167 102.5,325.5C 105.233,322.761 108.233,320.427 111.5,318.5 Z"/></g>
<g><path style="opacity:1" fill="#4876f9" d="M 154.5,280.5 C 154.414,281.496 154.748,282.329 155.5,283C 159.167,285 162.833,287 166.5,289C 165.833,289.333 165.167,289.667 164.5,290C 173.508,295.259 182.675,300.426 192,305.5C 194.865,304.959 196.865,306.293 198,309.5C 198.414,309.043 198.914,308.709 199.5,308.5C 204.959,311.544 209.959,315.044 214.5,319C 222.533,323.348 230.866,327.181 239.5,330.5C 245.711,333.863 251.544,337.863 257,342.5C 261.545,343.605 265.878,345.272 270,347.5C 271.15,346.576 272.15,346.576 273,347.5C 273.333,346.833 273.667,346.167 274,345.5C 275.399,346.227 276.899,346.727 278.5,347C 290.696,353.259 302.363,360.259 313.5,368C 327.518,374.67 340.852,382.336 353.5,391C 355.134,391.494 356.801,391.66 358.5,391.5C 358.833,391.5 359.167,391.5 359.5,391.5C 359.523,397.712 360.19,403.712 361.5,409.5C 361.5,413.5 361.5,417.5 361.5,421.5C 361.167,421.5 360.833,421.5 360.5,421.5C 360.5,419.5 360.5,417.5 360.5,415.5C 360.58,412.219 359.913,409.219 358.5,406.5C 358.5,405.167 358.5,403.833 358.5,402.5C 359.122,397.968 357.122,395.802 352.5,396C 340.998,389.163 329.498,382.33 318,375.5C 312.492,373.628 307.325,370.461 302.5,366C 295.597,362.632 288.764,359.132 282,355.5C 281.51,356.793 281.343,358.127 281.5,359.5C 278.521,358.683 275.521,357.849 272.5,357C 262.373,350.244 251.706,344.244 240.5,339C 240.867,337.243 240.034,335.743 238,334.5C 237.667,335.167 237.333,335.833 237,336.5C 220.98,328.487 205.313,319.821 190,310.5C 189.667,310.833 189.333,311.167 189,311.5C 185.567,309.533 182.4,307.199 179.5,304.5C 171.668,301.573 164.668,297.406 158.5,292C 154.688,290.399 150.855,288.899 147,287.5C 144.088,287.358 142.588,288.691 142.5,291.5C 141.041,291.433 139.708,291.766 138.5,292.5C 140.046,290.103 142.046,288.103 144.5,286.5C 147.225,285.287 149.559,283.454 151.5,281C 152.448,280.517 153.448,280.351 154.5,280.5 Z"/></g>
<g><path style="opacity:1" fill="#4b4fd8" d="M 93.5,335.5 C 91.6117,338.899 89.1117,341.899 86,344.5C 85.51,345.793 85.3433,347.127 85.5,348.5C 83.5544,347.965 82.5544,346.632 82.5,344.5C 86.438,341.902 90.1047,338.902 93.5,335.5 Z"/></g>
<g><path style="opacity:1" fill="#5141f3" d="M 124.5,308.5 C 124.5,307.833 124.833,307.5 125.5,307.5C 131.245,310.705 137.245,313.372 143.5,315.5C 143.5,316.5 143.5,317.5 143.5,318.5C 147.803,318.797 151.803,320.63 155.5,324C 166.17,327.672 176.17,332.672 185.5,339C 186.035,341.109 187.035,341.609 188.5,340.5C 196.006,344.214 203.34,348.048 210.5,352C 214.905,356.203 220.238,358.869 226.5,360C 231.021,364.268 235.688,366.935 240.5,368C 252.06,374.12 263.393,380.786 274.5,388C 280.167,390.167 285.833,392.333 291.5,394.5C 292.624,395.914 293.624,397.414 294.5,399C 299.507,398.379 303.174,400.213 305.5,404.5C 307.382,405.093 309.215,405.76 311,406.5C 313.72,405.689 316.22,405.689 318.5,406.5C 322.718,408.877 326.718,411.71 330.5,415C 338.049,418.775 345.716,422.608 353.5,426.5C 356.034,431.205 357.367,431.205 357.5,426.5C 357.706,424.451 358.539,424.117 360,425.5C 360.737,430.536 361.571,435.536 362.5,440.5C 361.056,437.598 359.556,434.598 358,431.5C 357.577,432.956 356.744,433.456 355.5,433C 344.289,426.566 333.289,419.9 322.5,413C 320.238,412.358 318.071,411.525 316,410.5C 315.586,410.957 315.086,411.291 314.5,411.5C 312.677,410.509 311.177,409.176 310,407.5C 307.945,407.848 305.945,407.181 304,405.5C 303,405.833 302,406.167 301,406.5C 294.314,401.271 287.147,397.938 279.5,396.5C 277.981,395.149 276.648,393.649 275.5,392C 272.452,391.394 269.952,389.894 268,387.5C 267.667,387.833 267.333,388.167 267,388.5C 265.5,387 264,385.5 262.5,384C 248.31,378.164 234.977,370.831 222.5,362C 217.384,361.38 213.05,359.214 209.5,355.5C 207.786,356.609 207.119,355.942 207.5,353.5C 204.309,352.908 201.309,351.741 198.5,350C 188.964,344.216 178.631,338.716 167.5,333.5C 166.618,332.24 165.618,331.074 164.5,330C 156.853,328.593 150.02,325.427 144,320.5C 143.439,321.022 142.772,321.355 142,321.5C 137.379,316.94 131.879,314.106 125.5,313C 128.293,310.76 127.96,309.26 124.5,308.5 Z"/></g>
<g><path style="opacity:1" fill="#448cfb" d="M 351.5,377.5 C 351.633,380.896 352.633,381.229 354.5,378.5C 356.082,380.015 357.416,381.681 358.5,383.5C 359.461,385.265 359.795,387.265 359.5,389.5C 359.5,390.167 359.5,390.833 359.5,391.5C 359.167,391.5 358.833,391.5 358.5,391.5C 358.649,390.448 358.483,389.448 358,388.5C 357.667,388.833 357.333,389.167 357,389.5C 356.051,387.907 354.885,386.574 353.5,385.5C 353.611,384.883 353.944,384.383 354.5,384C 347.146,378.747 339.146,374.414 330.5,371C 322.455,364.976 313.788,359.976 304.5,356C 303.833,355 303.167,354 302.5,353C 290.769,347.721 279.602,341.554 269,334.5C 267.706,335.854 267.54,337.188 268.5,338.5C 267.467,339.452 266.3,339.452 265,338.5C 261.133,336.633 257.633,334.133 254.5,331C 249.918,328.695 245.251,326.695 240.5,325C 239.531,323.242 238.364,322.742 237,323.5C 227.202,316.49 216.869,310.157 206,304.5C 200.401,301.622 194.568,299.122 188.5,297C 185.382,293.265 181.382,290.765 176.5,289.5C 172.726,287.229 169.393,284.396 166.5,281C 162.565,280.046 158.565,278.546 154.5,276.5C 156.091,275.781 157.591,274.781 159,273.5C 166.344,277.494 173.177,282.327 179.5,288C 208.081,303.029 236.414,318.529 264.5,334.5C 265.167,333.167 265.833,331.833 266.5,330.5C 266.833,330.667 267.167,330.833 267.5,331C 282.928,339.915 298.595,349.249 314.5,359C 326.739,365.418 339.072,371.585 351.5,377.5 Z"/></g>
<g><path style="opacity:1" fill="#4298fc" d="M 358.5,380.5 C 358.5,381.5 358.5,382.5 358.5,383.5C 357.416,381.681 356.082,380.015 354.5,378.5C 352.633,381.229 351.633,380.896 351.5,377.5C 351.489,375.983 350.823,374.816 349.5,374C 338.537,369.046 328.037,363.212 318,356.5C 317.667,356.833 317.333,357.167 317,357.5C 309.346,352.6 301.846,347.6 294.5,342.5C 289.015,340.257 283.682,337.757 278.5,335C 278.411,332.522 276.911,330.688 274,329.5C 272.251,330.299 270.918,329.632 270,327.5C 269.667,327.833 269.333,328.167 269,328.5C 265.242,326.844 261.408,326.344 257.5,327C 252.371,324.021 247.205,321.187 242,318.5C 241.667,318.833 241.333,319.167 241,319.5C 236.992,314.99 231.992,311.99 226,310.5C 225.086,311.654 224.253,311.487 223.5,310C 223.833,309.667 224.167,309.333 224.5,309C 206.368,299.629 189.034,289.962 172.5,280C 170.036,276.96 167.036,274.627 163.5,273C 160.502,272.109 157.836,272.609 155.5,274.5C 155.414,273.504 155.748,272.671 156.5,272C 159.834,271.219 163.167,270.886 166.5,271C 179.103,279.55 191.936,287.717 205,295.5C 205.333,295.167 205.667,294.833 206,294.5C 221.578,304.274 238.078,313.274 255.5,321.5C 260.042,319.765 263.709,320.932 266.5,325C 272.734,326.449 278.067,329.449 282.5,334C 293.889,338.064 304.222,343.898 313.5,351.5C 327.928,358.324 341.428,365.657 354,373.5C 356.036,375.592 357.536,377.926 358.5,380.5 Z"/></g>
<g><path style="opacity:1" fill="#4292fc" d="M 351.5,377.5 C 339.072,371.585 326.739,365.418 314.5,359C 298.595,349.249 282.928,339.915 267.5,331C 267.167,330.833 266.833,330.667 266.5,330.5C 265.833,331.833 265.167,333.167 264.5,334.5C 236.414,318.529 208.081,303.029 179.5,288C 173.177,282.327 166.344,277.494 159,273.5C 157.591,274.781 156.091,275.781 154.5,276.5C 150.812,279.521 147.479,282.854 144.5,286.5C 142.046,288.103 140.046,290.103 138.5,292.5C 135.833,293.833 133.833,295.833 132.5,298.5C 130.413,299.585 129.08,301.251 128.5,303.5C 127.833,303.5 127.167,303.5 126.5,303.5C 127.779,300.888 129.445,298.555 131.5,296.5C 134.07,294.386 136.403,292.053 138.5,289.5C 143.806,284.86 148.806,279.86 153.5,274.5C 154.167,274.5 154.833,274.5 155.5,274.5C 157.836,272.609 160.502,272.109 163.5,273C 167.036,274.627 170.036,276.96 172.5,280C 189.034,289.962 206.368,299.629 224.5,309C 224.167,309.333 223.833,309.667 223.5,310C 224.253,311.487 225.086,311.654 226,310.5C 231.992,311.99 236.992,314.99 241,319.5C 241.333,319.167 241.667,318.833 242,318.5C 247.205,321.187 252.371,324.021 257.5,327C 261.408,326.344 265.242,326.844 269,328.5C 269.333,328.167 269.667,327.833 270,327.5C 270.918,329.632 272.251,330.299 274,329.5C 276.911,330.688 278.411,332.522 278.5,335C 283.682,337.757 289.015,340.257 294.5,342.5C 301.846,347.6 309.346,352.6 317,357.5C 317.333,357.167 317.667,356.833 318,356.5C 328.037,363.212 338.537,369.046 349.5,374C 350.823,374.816 351.489,375.983 351.5,377.5 Z"/></g>
<g><path style="opacity:1" fill="#4e54f6" d="M 133.5,301.5 C 134.251,300.427 135.251,300.26 136.5,301C 136.998,302.158 137.831,302.991 139,303.5C 160.581,311.873 181.081,322.207 200.5,334.5C 209.672,339.252 219.005,343.752 228.5,348C 229.211,349.255 230.044,350.421 231,351.5C 253.936,362.38 276.103,374.38 297.5,387.5C 298.731,386.349 298.731,385.183 297.5,384C 298,383.5 298.5,383 299,382.5C 299.677,384.689 300.844,385.022 302.5,383.5C 318.218,393.691 334.552,402.857 351.5,411C 352.126,411.75 352.626,412.584 353,413.5C 353.984,411.205 354.817,411.539 355.5,414.5C 358.987,415.509 360.32,417.842 359.5,421.5C 357.571,419.852 355.571,418.185 353.5,416.5C 338.877,409.69 324.877,401.857 311.5,393C 308.804,392.235 306.304,391.068 304,389.5C 303.683,391.301 303.016,391.634 302,390.5C 301.311,391.357 300.478,392.023 299.5,392.5C 287.487,385.262 275.153,378.762 262.5,373C 261.5,372 260.5,371 259.5,370C 242.397,361.704 225.897,352.537 210,342.5C 209.667,342.833 209.333,343.167 209,343.5C 205.047,341.879 202.047,339.213 200,335.5C 197.519,336.022 195.186,336.022 193,335.5C 192.751,334.376 192.251,333.376 191.5,332.5C 183.972,328.572 176.639,324.406 169.5,320C 162.556,318.362 156.222,315.362 150.5,311C 143.265,310.388 137.598,307.222 133.5,301.5 Z"/></g>
<g><path style="opacity:0.929" fill="#4311b5" d="M 111.5,361.5 C 118.916,364.038 126.249,366.871 133.5,370C 134.337,371.011 134.67,372.178 134.5,373.5C 126.668,369.751 119.001,365.751 111.5,361.5 Z"/></g>
<g><path style="opacity:1" fill="#4f4df4" d="M 133.5,301.5 C 137.598,307.222 143.265,310.388 150.5,311C 156.222,315.362 162.556,318.362 169.5,320C 176.639,324.406 183.972,328.572 191.5,332.5C 192.251,333.376 192.751,334.376 193,335.5C 195.186,336.022 197.519,336.022 200,335.5C 202.047,339.213 205.047,341.879 209,343.5C 209.333,343.167 209.667,342.833 210,342.5C 225.897,352.537 242.397,361.704 259.5,370C 260.5,371 261.5,372 262.5,373C 275.153,378.762 287.487,385.262 299.5,392.5C 300.478,392.023 301.311,391.357 302,390.5C 303.016,391.634 303.683,391.301 304,389.5C 306.304,391.068 308.804,392.235 311.5,393C 324.877,401.857 338.877,409.69 353.5,416.5C 355.571,418.185 357.571,419.852 359.5,421.5C 359.833,421.5 360.167,421.5 360.5,421.5C 360.833,421.5 361.167,421.5 361.5,421.5C 360.931,425.329 361.598,428.663 363.5,431.5C 363.5,432.5 363.5,433.5 363.5,434.5C 363.5,436.5 363.5,438.5 363.5,440.5C 363.167,440.5 362.833,440.5 362.5,440.5C 361.571,435.536 360.737,430.536 360,425.5C 358.539,424.117 357.706,424.451 357.5,426.5C 355.298,425.208 353.631,423.374 352.5,421C 350.833,420.667 349.167,420.333 347.5,420C 338.585,414.086 329.419,408.586 320,403.5C 318.674,402.201 317.34,400.868 316,399.5C 313.425,400.864 311.425,400.198 310,397.5C 308.416,397.988 307.249,398.988 306.5,400.5C 292.155,393.764 278.822,386.264 266.5,378C 255.674,373.137 245.007,367.303 234.5,360.5C 233.009,359.756 231.509,359.09 230,358.5C 229.667,358.833 229.333,359.167 229,359.5C 227.333,357.833 225.667,356.167 224,354.5C 223.667,355.167 223.333,355.833 223,356.5C 204.687,344.057 185.853,333.224 166.5,324C 161.579,322.867 157.246,320.7 153.5,317.5C 145.672,313.324 137.672,309.324 129.5,305.5C 127.974,305.994 126.641,306.661 125.5,307.5C 124.833,307.5 124.5,307.833 124.5,308.5C 122.754,310.252 120.754,311.585 118.5,312.5C 121.167,309.5 123.833,306.5 126.5,303.5C 127.167,303.5 127.833,303.5 128.5,303.5C 130.284,303.107 131.95,302.441 133.5,301.5 Z"/></g>
<g><path style="opacity:0.966" fill="#3b85c7" d="M 355.5,326.5 C 357.41,347.332 359.077,368.332 360.5,389.5C 360.167,389.5 359.833,389.5 359.5,389.5C 359.795,387.265 359.461,385.265 358.5,383.5C 358.5,382.5 358.5,381.5 358.5,380.5C 358.051,376.952 357.051,373.619 355.5,370.5C 356.372,364.211 356.705,357.878 356.5,351.5C 356.806,348.615 356.473,345.948 355.5,343.5C 355.5,343.167 355.5,342.833 355.5,342.5C 355.5,337.167 355.5,331.833 355.5,326.5 Z"/></g>
<g><path style="opacity:1" fill="#5a05ec" d="M 101.5,331.5 C 103.727,332.401 104.727,334.067 104.5,336.5C 107.278,336.978 109.278,335.978 110.5,333.5C 111.452,335.045 111.785,336.712 111.5,338.5C 116.855,338.703 121.188,340.869 124.5,345C 130.466,346.357 135.966,348.857 141,352.5C 141.333,352.167 141.667,351.833 142,351.5C 148.96,356.39 155.793,361.39 162.5,366.5C 164.766,367.314 167.1,367.814 169.5,368C 174.277,371.722 179.61,374.388 185.5,376C 190.719,379.727 196.052,383.227 201.5,386.5C 204.485,387.838 207.152,389.005 209.5,390C 209.167,390.333 208.833,390.667 208.5,391C 212.67,392.737 217.336,394.071 222.5,395C 226.475,398.304 230.475,401.637 234.5,405C 240.422,406.914 245.756,409.247 250.5,412C 246.81,412.424 246.643,413.258 250,414.5C 253.555,414.063 256.889,415.063 260,417.5C 265.362,420.437 271.195,423.437 277.5,426.5C 279.019,427.851 280.352,429.351 281.5,431C 283.5,431.333 285.5,431.667 287.5,432C 290.952,434.393 294.619,436.226 298.5,437.5C 298.119,439.942 298.786,440.609 300.5,439.5C 302.149,440.648 303.649,441.981 305,443.5C 305.333,443.167 305.667,442.833 306,442.5C 307.419,443.46 308.919,444.293 310.5,445C 309.346,445.914 309.513,446.747 311,447.5C 311.333,447.167 311.667,446.833 312,446.5C 315.147,447.162 317.981,448.495 320.5,450.5C 319.564,451.974 318.23,452.974 316.5,453.5C 315.087,455.368 313.92,457.368 313,459.5C 311.644,458.62 310.144,458.286 308.5,458.5C 308.389,457.883 308.056,457.383 307.5,457C 304.522,456.304 301.522,455.804 298.5,455.5C 298.631,454.761 298.464,454.094 298,453.5C 295.51,453.011 293.676,451.677 292.5,449.5C 289.572,448.516 286.572,448.183 283.5,448.5C 282.833,448.5 282.5,448.167 282.5,447.5C 280.273,445.357 277.939,443.19 275.5,441C 272.317,440.661 269.65,439.328 267.5,437C 265.19,436.503 262.857,436.337 260.5,436.5C 258.87,433.827 256.537,431.827 253.5,430.5C 252.614,429.675 252.281,428.675 252.5,427.5C 245.233,427.376 238.567,425.21 232.5,421C 231.207,420.51 229.873,420.343 228.5,420.5C 226.845,418.4 224.678,416.734 222,415.5C 220.234,414.767 218.401,414.433 216.5,414.5C 214.082,411.29 210.748,409.624 206.5,409.5C 204.082,406.29 200.748,404.624 196.5,404.5C 193.413,400.956 189.413,398.956 184.5,398.5C 181.413,394.956 177.413,392.956 172.5,392.5C 168.461,388.965 163.794,386.131 158.5,384C 157.207,383.51 155.873,383.343 154.5,383.5C 151.413,379.956 147.413,377.956 142.5,377.5C 139.515,376.674 136.849,375.341 134.5,373.5C 134.67,372.178 134.337,371.011 133.5,370C 126.249,366.871 118.916,364.038 111.5,361.5C 102.516,357.675 93.849,353.341 85.5,348.5C 85.3433,347.127 85.51,345.793 86,344.5C 89.1117,341.899 91.6117,338.899 93.5,335.5C 94.791,335.737 95.791,335.404 96.5,334.5C 98.4113,333.925 100.078,332.925 101.5,331.5 Z"/></g>
<g><path style="opacity:1" fill="#4486fa" d="M 154.5,276.5 C 158.565,278.546 162.565,280.046 166.5,281C 169.393,284.396 172.726,287.229 176.5,289.5C 181.382,290.765 185.382,293.265 188.5,297C 194.568,299.122 200.401,301.622 206,304.5C 216.869,310.157 227.202,316.49 237,323.5C 238.364,322.742 239.531,323.242 240.5,325C 245.251,326.695 249.918,328.695 254.5,331C 257.633,334.133 261.133,336.633 265,338.5C 266.3,339.452 267.467,339.452 268.5,338.5C 267.54,337.188 267.706,335.854 269,334.5C 279.602,341.554 290.769,347.721 302.5,353C 303.167,354 303.833,355 304.5,356C 313.788,359.976 322.455,364.976 330.5,371C 339.146,374.414 347.146,378.747 354.5,384C 353.944,384.383 353.611,384.883 353.5,385.5C 350.12,384.096 346.786,382.596 343.5,381C 341.522,378.767 339.355,377.6 337,377.5C 333.912,375.706 330.746,374.039 327.5,372.5C 324.753,368.86 321.087,367.027 316.5,367C 302.552,356.265 287.552,347.599 271.5,341C 270.167,341.667 270.167,342.333 271.5,343C 268.056,342.914 264.723,342.08 261.5,340.5C 256.788,336.547 251.788,333.047 246.5,330C 244.608,329.027 242.608,328.36 240.5,328C 239.531,326.242 238.364,325.742 237,326.5C 220.052,315.78 202.552,306.28 184.5,298C 181.253,293.795 176.92,291.462 171.5,291C 168.941,288.561 166.608,285.895 164.5,283C 161.378,281.355 158.212,279.855 155,278.5C 154.536,279.094 154.369,279.761 154.5,280.5C 153.448,280.351 152.448,280.517 151.5,281C 149.559,283.454 147.225,285.287 144.5,286.5C 147.479,282.854 150.812,279.521 154.5,276.5 Z"/></g>
<g><path style="opacity:1" fill="#5047f4" d="M 357.5,426.5 C 357.367,431.205 356.034,431.205 353.5,426.5C 345.716,422.608 338.049,418.775 330.5,415C 326.718,411.71 322.718,408.877 318.5,406.5C 316.22,405.689 313.72,405.689 311,406.5C 309.215,405.76 307.382,405.093 305.5,404.5C 303.174,400.213 299.507,398.379 294.5,399C 293.624,397.414 292.624,395.914 291.5,394.5C 285.833,392.333 280.167,390.167 274.5,388C 263.393,380.786 252.06,374.12 240.5,368C 235.688,366.935 231.021,364.268 226.5,360C 220.238,358.869 214.905,356.203 210.5,352C 203.34,348.048 196.006,344.214 188.5,340.5C 187.035,341.609 186.035,341.109 185.5,339C 176.17,332.672 166.17,327.672 155.5,324C 151.803,320.63 147.803,318.797 143.5,318.5C 143.5,317.5 143.5,316.5 143.5,315.5C 137.245,313.372 131.245,310.705 125.5,307.5C 126.641,306.661 127.974,305.994 129.5,305.5C 137.672,309.324 145.672,313.324 153.5,317.5C 157.246,320.7 161.579,322.867 166.5,324C 185.853,333.224 204.687,344.057 223,356.5C 223.333,355.833 223.667,355.167 224,354.5C 225.667,356.167 227.333,357.833 229,359.5C 229.333,359.167 229.667,358.833 230,358.5C 231.509,359.09 233.009,359.756 234.5,360.5C 245.007,367.303 255.674,373.137 266.5,378C 278.822,386.264 292.155,393.764 306.5,400.5C 307.249,398.988 308.416,397.988 310,397.5C 311.425,400.198 313.425,400.864 316,399.5C 317.34,400.868 318.674,402.201 320,403.5C 329.419,408.586 338.585,414.086 347.5,420C 349.167,420.333 350.833,420.667 352.5,421C 353.631,423.374 355.298,425.208 357.5,426.5 Z"/></g>
<g><path style="opacity:0.855" fill="#3e13a7" d="M 142.5,377.5 C 147.413,377.956 151.413,379.956 154.5,383.5C 150.182,382.008 146.182,380.008 142.5,377.5 Z"/></g>
<g><path style="opacity:1" fill="#552af1" d="M 121.5,318.5 C 123.259,318.954 125.259,318.954 127.5,318.5C 127.286,320.144 127.62,321.644 128.5,323C 134.374,324.857 139.874,327.357 145,330.5C 145.333,330.167 145.667,329.833 146,329.5C 147.873,331.709 150.04,333.542 152.5,335C 164.435,340.082 175.935,345.915 187,352.5C 187.333,352.167 187.667,351.833 188,351.5C 189.848,353.018 191.348,354.851 192.5,357C 198.53,359.352 204.53,361.685 210.5,364C 220.479,370.568 230.645,376.735 241,382.5C 244.927,382.769 248.094,384.435 250.5,387.5C 258.205,390.099 265.038,394.099 271,399.5C 271.333,399.167 271.667,398.833 272,398.5C 277.283,401.554 282.45,404.721 287.5,408C 291.428,408.791 295.094,410.791 298.5,414C 306.755,418.377 314.922,422.877 323,427.5C 323.5,427 324,426.5 324.5,426C 321.716,423.92 322.049,423.253 325.5,424C 329.319,427.988 333.819,430.822 339,432.5C 339.333,432.167 339.667,431.833 340,431.5C 342.011,435.688 345.844,438.021 351.5,438.5C 351.281,439.675 351.614,440.675 352.5,441.5C 353.527,440.209 354.527,440.209 355.5,441.5C 358.279,442.617 358.612,443.783 356.5,445C 357.252,445.671 357.586,446.504 357.5,447.5C 356.21,446.942 355.377,445.942 355,444.5C 353.86,446.078 353.36,447.744 353.5,449.5C 351.205,448.568 348.871,447.735 346.5,447C 341.632,442.034 335.632,439.368 328.5,439C 324.411,434.62 319.411,431.787 313.5,430.5C 287.045,414.607 260.045,399.774 232.5,386C 231.167,385.333 231.167,384.667 232.5,384C 230.212,383.178 227.878,382.511 225.5,382C 227.301,381.683 227.634,381.016 226.5,380C 225.451,379.508 224.451,379.674 223.5,380.5C 211.822,375.003 200.655,368.669 190,361.5C 173.703,354.18 157.203,345.68 140.5,336C 139.207,335.51 137.873,335.343 136.5,335.5C 136.649,334.448 136.483,333.448 136,332.5C 135.667,332.833 135.333,333.167 135,333.5C 132.31,330.992 129.31,328.992 126,327.5C 125.667,327.833 125.333,328.167 125,328.5C 121.006,325.842 117.006,323.175 113,320.5C 111.814,322.677 109.981,323.677 107.5,323.5C 108.833,321.833 110.167,320.167 111.5,318.5C 111.833,318.5 112.167,318.5 112.5,318.5C 114.948,316.716 117.615,315.382 120.5,314.5C 120.232,316.099 120.566,317.432 121.5,318.5 Z"/></g>
<g><path style="opacity:0.898" fill="#3c14a8" d="M 154.5,383.5 C 155.873,383.343 157.207,383.51 158.5,384C 163.794,386.131 168.461,388.965 172.5,392.5C 166.182,390.008 160.182,387.008 154.5,383.5 Z"/></g>
<g><path style="opacity:1" fill="#513bf2" d="M 124.5,308.5 C 127.96,309.26 128.293,310.76 125.5,313C 131.879,314.106 137.379,316.94 142,321.5C 142.772,321.355 143.439,321.022 144,320.5C 150.02,325.427 156.853,328.593 164.5,330C 165.618,331.074 166.618,332.24 167.5,333.5C 178.631,338.716 188.964,344.216 198.5,350C 201.309,351.741 204.309,352.908 207.5,353.5C 207.119,355.942 207.786,356.609 209.5,355.5C 213.05,359.214 217.384,361.38 222.5,362C 234.977,370.831 248.31,378.164 262.5,384C 264,385.5 265.5,387 267,388.5C 267.333,388.167 267.667,387.833 268,387.5C 269.952,389.894 272.452,391.394 275.5,392C 276.648,393.649 277.981,395.149 279.5,396.5C 287.147,397.938 294.314,401.271 301,406.5C 302,406.167 303,405.833 304,405.5C 305.945,407.181 307.945,407.848 310,407.5C 311.177,409.176 312.677,410.509 314.5,411.5C 315.086,411.291 315.586,410.957 316,410.5C 318.071,411.525 320.238,412.358 322.5,413C 333.289,419.9 344.289,426.566 355.5,433C 356.744,433.456 357.577,432.956 358,431.5C 359.556,434.598 361.056,437.598 362.5,440.5C 362.833,440.5 363.167,440.5 363.5,440.5C 363.629,447.845 363.962,455.178 364.5,462.5C 363.276,457.034 362.443,451.367 362,445.5C 359.891,446.035 359.391,447.035 360.5,448.5C 358.952,451.007 357.952,450.674 357.5,447.5C 357.586,446.504 357.252,445.671 356.5,445C 358.612,443.783 358.279,442.617 355.5,441.5C 354.829,440.153 354.829,438.986 355.5,438C 345.281,431.33 334.614,425.163 323.5,419.5C 322.549,420.326 321.549,420.492 320.5,420C 319.5,418.333 318.167,417 316.5,416C 311.175,416.333 306.841,414.5 303.5,410.5C 282.29,400.315 261.79,388.982 242,376.5C 241.667,376.833 241.333,377.167 241,377.5C 228.927,369.966 216.594,362.966 204,356.5C 203.667,356.833 203.333,357.167 203,357.5C 200.833,355.667 198.667,353.833 196.5,352C 189.622,349.69 183.456,346.19 178,341.5C 172.988,340.662 168.321,338.329 164,334.5C 163.667,334.833 163.333,335.167 163,335.5C 158.167,332.667 153.333,329.833 148.5,327C 140.778,323.972 133.445,320.139 126.5,315.5C 125.28,316.711 124.113,316.711 123,315.5C 122.487,316.527 121.987,317.527 121.5,318.5C 120.566,317.432 120.232,316.099 120.5,314.5C 117.615,315.382 114.948,316.716 112.5,318.5C 114.167,316.167 116.167,314.167 118.5,312.5C 120.754,311.585 122.754,310.252 124.5,308.5 Z"/></g>
<g><path style="opacity:0.867" fill="#4015a5" d="M 172.5,392.5 C 177.413,392.956 181.413,394.956 184.5,398.5C 180.182,397.008 176.182,395.008 172.5,392.5 Z"/></g>
<g><path style="opacity:0.843" fill="#4016aa" d="M 184.5,398.5 C 189.413,398.956 193.413,400.956 196.5,404.5C 192.182,403.008 188.182,401.008 184.5,398.5 Z"/></g>
<g><path style="opacity:0.878" fill="#4114ad" d="M 196.5,404.5 C 200.748,404.624 204.082,406.29 206.5,409.5C 202.849,408.341 199.515,406.674 196.5,404.5 Z"/></g>
<g><path style="opacity:0.259" fill="#334fa4" d="M 359.5,389.5 C 359.833,389.5 360.167,389.5 360.5,389.5C 361.139,396.148 361.473,402.814 361.5,409.5C 360.19,403.712 359.523,397.712 359.5,391.5C 359.5,390.833 359.5,390.167 359.5,389.5 Z"/></g>
<g><path style="opacity:0.89" fill="#4013ae" d="M 206.5,409.5 C 210.748,409.624 214.082,411.29 216.5,414.5C 212.849,413.341 209.515,411.674 206.5,409.5 Z"/></g>
<g><path style="opacity:1" fill="#561fef" d="M 357.5,447.5 C 357.952,450.674 358.952,451.007 360.5,448.5C 359.391,447.035 359.891,446.035 362,445.5C 362.443,451.367 363.276,457.034 364.5,462.5C 365.697,471.166 366.03,479.833 365.5,488.5C 364.261,488.058 363.261,487.391 362.5,486.5C 363.805,484.603 364.471,482.269 364.5,479.5C 364.916,472.112 362.75,465.779 358,460.5C 357.751,461.624 357.251,462.624 356.5,463.5C 356.167,463.333 355.833,463.167 355.5,463C 354.099,460.469 352.433,458.136 350.5,456C 346.041,455.321 341.707,454.155 337.5,452.5C 330.805,448.774 324.305,444.774 318,440.5C 317.667,440.833 317.333,441.167 317,441.5C 314.079,439.623 311.246,437.623 308.5,435.5C 308.709,434.914 309.043,434.414 309.5,434C 307.693,431.724 306.193,431.557 305,433.5C 302.404,431.98 299.571,431.147 296.5,431C 294.017,428.594 291.35,426.427 288.5,424.5C 286.228,423.515 283.895,422.681 281.5,422C 278.004,418.414 273.671,416.08 268.5,415C 265.028,411.53 261.195,409.363 257,408.5C 254.678,405.399 251.845,403.899 248.5,404C 246.442,400.603 243.442,398.937 239.5,399C 222.738,388.779 205.404,379.279 187.5,370.5C 186.719,369.271 186.219,367.938 186,366.5C 184.951,367.517 183.784,367.684 182.5,367C 172.207,360.903 161.541,355.57 150.5,351C 149.167,349.667 147.833,348.333 146.5,347C 140.333,344.722 134.333,342.055 128.5,339C 127.085,336.208 124.751,334.708 121.5,334.5C 118.575,329.486 114.741,328.486 110,331.5C 106.973,328.834 104.14,328.834 101.5,331.5C 100.078,332.925 98.4113,333.925 96.5,334.5C 99.8333,330.5 103.5,326.833 107.5,323.5C 109.981,323.677 111.814,322.677 113,320.5C 117.006,323.175 121.006,325.842 125,328.5C 125.333,328.167 125.667,327.833 126,327.5C 129.31,328.992 132.31,330.992 135,333.5C 135.333,333.167 135.667,332.833 136,332.5C 136.483,333.448 136.649,334.448 136.5,335.5C 137.873,335.343 139.207,335.51 140.5,336C 157.203,345.68 173.703,354.18 190,361.5C 200.655,368.669 211.822,375.003 223.5,380.5C 224.451,379.674 225.451,379.508 226.5,380C 227.634,381.016 227.301,381.683 225.5,382C 227.878,382.511 230.212,383.178 232.5,384C 231.167,384.667 231.167,385.333 232.5,386C 260.045,399.774 287.045,414.607 313.5,430.5C 319.411,431.787 324.411,434.62 328.5,439C 335.632,439.368 341.632,442.034 346.5,447C 348.871,447.735 351.205,448.568 353.5,449.5C 353.36,447.744 353.86,446.078 355,444.5C 355.377,445.942 356.21,446.942 357.5,447.5 Z"/></g>
<g><path style="opacity:0.914" fill="#4213b3" d="M 216.5,414.5 C 218.401,414.433 220.234,414.767 222,415.5C 224.678,416.734 226.845,418.4 228.5,420.5C 224.182,419.008 220.182,417.008 216.5,414.5 Z"/></g>
<g><path style="opacity:0.8" fill="#37419f" d="M 361.5,409.5 C 362.707,416.639 363.374,423.972 363.5,431.5C 361.598,428.663 360.931,425.329 361.5,421.5C 361.5,417.5 361.5,413.5 361.5,409.5 Z"/></g>
<g><path style="opacity:1" fill="#460fc3" d="M 228.5,420.5 C 229.873,420.343 231.207,420.51 232.5,421C 238.567,425.21 245.233,427.376 252.5,427.5C 252.281,428.675 252.614,429.675 253.5,430.5C 256.537,431.827 258.87,433.827 260.5,436.5C 249.516,431.675 238.849,426.341 228.5,420.5 Z"/></g>
<g><path style="opacity:1" fill="#590eee" d="M 362.5,486.5 C 360.958,485.699 359.292,485.366 357.5,485.5C 357.631,484.624 357.298,483.957 356.5,483.5C 352.673,481.754 349.007,479.754 345.5,477.5C 343.318,474.452 341.151,471.452 339,468.5C 338.781,469.938 338.281,471.271 337.5,472.5C 335.5,471.833 333.5,471.167 331.5,470.5C 330.378,468.956 330.711,467.623 332.5,466.5C 330.365,465.355 328.199,465.355 326,466.5C 321.632,464.69 317.132,463.356 312.5,462.5C 311.473,460.806 310.139,459.473 308.5,458.5C 310.144,458.286 311.644,458.62 313,459.5C 313.92,457.368 315.087,455.368 316.5,453.5C 318.23,452.974 319.564,451.974 320.5,450.5C 317.981,448.495 315.147,447.162 312,446.5C 311.667,446.833 311.333,447.167 311,447.5C 309.513,446.747 309.346,445.914 310.5,445C 308.919,444.293 307.419,443.46 306,442.5C 305.667,442.833 305.333,443.167 305,443.5C 303.649,441.981 302.149,440.648 300.5,439.5C 298.786,440.609 298.119,439.942 298.5,437.5C 294.619,436.226 290.952,434.393 287.5,432C 285.5,431.667 283.5,431.333 281.5,431C 280.352,429.351 279.019,427.851 277.5,426.5C 271.195,423.437 265.362,420.437 260,417.5C 256.889,415.063 253.555,414.063 250,414.5C 246.643,413.258 246.81,412.424 250.5,412C 245.756,409.247 240.422,406.914 234.5,405C 230.475,401.637 226.475,398.304 222.5,395C 217.336,394.071 212.67,392.737 208.5,391C 208.833,390.667 209.167,390.333 209.5,390C 207.152,389.005 204.485,387.838 201.5,386.5C 196.052,383.227 190.719,379.727 185.5,376C 179.61,374.388 174.277,371.722 169.5,368C 167.1,367.814 164.766,367.314 162.5,366.5C 155.793,361.39 148.96,356.39 142,351.5C 141.667,351.833 141.333,352.167 141,352.5C 135.966,348.857 130.466,346.357 124.5,345C 121.188,340.869 116.855,338.703 111.5,338.5C 111.785,336.712 111.452,335.045 110.5,333.5C 109.278,335.978 107.278,336.978 104.5,336.5C 104.727,334.067 103.727,332.401 101.5,331.5C 104.14,328.834 106.973,328.834 110,331.5C 114.741,328.486 118.575,329.486 121.5,334.5C 124.751,334.708 127.085,336.208 128.5,339C 134.333,342.055 140.333,344.722 146.5,347C 147.833,348.333 149.167,349.667 150.5,351C 161.541,355.57 172.207,360.903 182.5,367C 183.784,367.684 184.951,367.517 186,366.5C 186.219,367.938 186.719,369.271 187.5,370.5C 205.404,379.279 222.738,388.779 239.5,399C 243.442,398.937 246.442,400.603 248.5,404C 251.845,403.899 254.678,405.399 257,408.5C 261.195,409.363 265.028,411.53 268.5,415C 273.671,416.08 278.004,418.414 281.5,422C 283.895,422.681 286.228,423.515 288.5,424.5C 291.35,426.427 294.017,428.594 296.5,431C 299.571,431.147 302.404,431.98 305,433.5C 306.193,431.557 307.693,431.724 309.5,434C 309.043,434.414 308.709,434.914 308.5,435.5C 311.246,437.623 314.079,439.623 317,441.5C 317.333,441.167 317.667,440.833 318,440.5C 324.305,444.774 330.805,448.774 337.5,452.5C 341.707,454.155 346.041,455.321 350.5,456C 352.433,458.136 354.099,460.469 355.5,463C 355.833,463.167 356.167,463.333 356.5,463.5C 357.251,462.624 357.751,461.624 358,460.5C 362.75,465.779 364.916,472.112 364.5,479.5C 364.471,482.269 363.805,484.603 362.5,486.5 Z"/></g>
<g><path style="opacity:1" fill="#470fc3" d="M 260.5,436.5 C 262.857,436.337 265.19,436.503 267.5,437C 269.65,439.328 272.317,440.661 275.5,441C 277.939,443.19 280.273,445.357 282.5,447.5C 274.849,444.341 267.516,440.675 260.5,436.5 Z"/></g>
<g><path style="opacity:1" fill="#480dbe" d="M 283.5,448.5 C 286.572,448.183 289.572,448.516 292.5,449.5C 293.676,451.677 295.51,453.011 298,453.5C 298.464,454.094 298.631,454.761 298.5,455.5C 293.039,453.933 288.039,451.6 283.5,448.5 Z"/></g>
<g><path style="opacity:1" fill="#470ec1" d="M 298.5,455.5 C 301.522,455.804 304.522,456.304 307.5,457C 308.056,457.383 308.389,457.883 308.5,458.5C 310.139,459.473 311.473,460.806 312.5,462.5C 307.547,460.69 302.88,458.357 298.5,455.5 Z"/></g>
<g><path style="opacity:1" fill="#4e09cb" d="M 312.5,462.5 C 317.132,463.356 321.632,464.69 326,466.5C 328.199,465.355 330.365,465.355 332.5,466.5C 330.711,467.623 330.378,468.956 331.5,470.5C 333.5,471.167 335.5,471.833 337.5,472.5C 338.281,471.271 338.781,469.938 339,468.5C 341.151,471.452 343.318,474.452 345.5,477.5C 349.007,479.754 352.673,481.754 356.5,483.5C 357.298,483.957 357.631,484.624 357.5,485.5C 342.228,478.195 327.228,470.528 312.5,462.5 Z"/></g>
<g><path style="opacity:0.412" fill="#341b8f" d="M 363.5,434.5 C 365.399,452.977 366.733,471.644 367.5,490.5C 363.58,489.873 360.247,488.207 357.5,485.5C 359.292,485.366 360.958,485.699 362.5,486.5C 363.261,487.391 364.261,488.058 365.5,488.5C 366.03,479.833 365.697,471.166 364.5,462.5C 363.962,455.178 363.629,447.845 363.5,440.5C 363.5,438.5 363.5,436.5 363.5,434.5 Z"/></g>
</svg>
